<svg xmlns="http://www.w3.org/2000/svg" width="20" height="19" viewBox="0 0 20 19">
    <path fill="#ABABAB" fill-rule="nonzero" stroke="#1F2341" stroke-width=".44" d="M9.98 1.2c-3.34.01-6.086 2.458-6.086 5.472 0 2.953-.084 6.37-2.602 8.719l-.012.012-.007.006-.012.007-.006.006-.007.006a.095.095 0 0 0-.006.013c-.002.003-.005.004-.006.007v.006l-.007.006c-.002.004-.005.008-.006.013l-.007.007v.012l-.006.006v.013l-.006.013V15.58l.006.013v.018a.064.064 0 0 0 .006.013v.006l.007.007a.095.095 0 0 0 .006.013.095.095 0 0 0 .007.012v.007l.006.006.006.007.007.006.006.012a.046.046 0 0 0 .006.006l.013.007v.006l.012.006.007.007.012.006h.007a.095.095 0 0 0 .013.007h.006l.013.006h.006l.013.006H7.16c.037.84.38 1.497.889 1.937.537.467 1.244.697 1.95.697.704 0 1.417-.23 1.955-.697.508-.44.852-1.097.889-1.937h5.72a.228.228 0 0 0 .102-.013h.007l.007-.006.019-.006a.208.208 0 0 0 .057-.058l.007-.006.005-.006.007-.013a.024.024 0 0 0 .006-.007.03.03 0 0 0 0-.012l.007-.006.006-.013v-.019a.208.208 0 0 0 0-.07v-.007a.095.095 0 0 0-.006-.012v-.013l-.007-.007-.006-.025-.012-.013v-.006a.193.193 0 0 0-.026-.025v-.007h-.006l-.013-.012-.013-.013c-2.51-2.35-2.588-5.763-2.588-8.713 0-3.014-2.76-5.461-6.098-5.471h-.04l.001.002zm-.014.41h.059c3.137.012 5.682 2.3 5.682 5.062 0 2.83.064 6.22 2.39 8.68H1.908c2.326-2.46 2.397-5.851 2.397-8.68 0-2.76 2.53-5.047 5.663-5.062zM7.57 15.762h4.865c-.036.728-.324 1.262-.748 1.63-.453.392-1.072.594-1.688.594-.616 0-1.228-.202-1.68-.594-.425-.368-.713-.902-.749-1.63z"/>
</svg>
