<svg xmlns="http://www.w3.org/2000/svg" width="32" height="32" viewBox="0 0 32 32">
    <path fill="#1F2341" fill-rule="nonzero" d="M14.127.572a.67.67 0 0 0-.661.563l-.653 3.994c-.784.228-1.532.536-2.237.92L7.279 3.695a.67.67 0 0 0-.863.07l-2.61 2.608a.67.67 0 0 0-.075.86l2.32 3.316a11.35 11.35 0 0 0-.939 2.254l-3.978.662a.67.67 0 0 0-.559.661v3.69a.67.67 0 0 0 .553.661l3.98.705c.233.79.545 1.544.936 2.254L3.696 24.72a.67.67 0 0 0 .07.864l2.61 2.61a.67.67 0 0 0 .857.076l3.324-2.327c.707.385 1.457.696 2.244.926l.665 4a.67.67 0 0 0 .661.56h3.69a.67.67 0 0 0 .661-.554l.712-4.015c.784-.234 1.53-.549 2.234-.937l3.346 2.348a.67.67 0 0 0 .86-.075l2.608-2.611a.67.67 0 0 0 .07-.866l-2.386-3.312c.381-.7.688-1.442.917-2.22l4.036-.708a.67.67 0 0 0 .554-.662v-3.69a.67.67 0 0 0-.562-.661l-4.03-.66a11.326 11.326 0 0 0-.92-2.217l2.354-3.353a.67.67 0 0 0-.075-.86l-2.61-2.608a.67.67 0 0 0-.866-.07l-3.303 2.376c-.704-.387-1.45-.7-2.236-.932l-.703-4.014a.67.67 0 0 0-.661-.556h-3.69zm.572 1.342h2.554l.669 3.814a.67.67 0 0 0 .497.536 9.926 9.926 0 0 1 2.744 1.141c.23.14.52.128.739-.029l3.14-2.256 1.806 1.807-2.235 3.185a.67.67 0 0 0-.027.73c.505.84.887 1.756 1.131 2.731a.67.67 0 0 0 .543.5l3.828.626v2.555l-3.836.673a.67.67 0 0 0-.535.5 9.927 9.927 0 0 1-1.128 2.73.67.67 0 0 0 .03.737l2.267 3.146-1.807 1.808-3.18-2.231a.67.67 0 0 0-.733-.024 9.99 9.99 0 0 1-2.737 1.147.67.67 0 0 0-.497.533l-.677 3.815h-2.559l-.632-3.798a.67.67 0 0 0-.5-.541 9.997 9.997 0 0 1-2.754-1.137.67.67 0 0 0-.73.026l-3.155 2.21-1.808-1.81 2.23-3.118a.67.67 0 0 0 .028-.737 9.967 9.967 0 0 1-1.148-2.76.67.67 0 0 0-.533-.499l-3.777-.67v-2.56l3.774-.627a.67.67 0 0 0 .541-.499 10.03 10.03 0 0 1 1.148-2.762.67.67 0 0 0-.024-.732l-2.203-3.15 1.81-1.808 3.126 2.235a.67.67 0 0 0 .735.03 9.948 9.948 0 0 1 2.753-1.132.67.67 0 0 0 .502-.543l.62-3.792zm1.303 8.72a5.377 5.377 0 0 0-5.366 5.367 5.377 5.377 0 0 0 5.366 5.367A5.377 5.377 0 0 0 21.37 16a5.377 5.377 0 0 0-5.367-5.366zm0 1.342a4.015 4.015 0 0 1 4.025 4.025 4.015 4.015 0 0 1-4.025 4.025A4.015 4.015 0 0 1 11.977 16a4.015 4.015 0 0 1 4.025-4.025z"/>
</svg>
