<svg xmlns="http://www.w3.org/2000/svg" width="44" height="44" viewBox="0 0 44 44">
    <g fill="#1F2341" fill-rule="nonzero">
        <path d="M22 44C9.87 44 0 34.13 0 22S9.87 0 22 0s22 9.87 22 22-9.87 22-22 22zm0-41.8C11.083 2.2 2.2 11.083 2.2 22c0 10.917 8.883 19.8 19.8 19.8 10.917 0 19.8-8.883 19.8-19.8 0-10.917-8.883-19.8-19.8-19.8z"/>
        <path d="M21.096 28.205c-.586 0-1.06-.49-1.06-1.096V25.41c0-3.296 1.945-4.782 3.507-5.976 1.42-1.086 2.541-1.942 2.541-3.949 0-2.593-1.593-4.267-4.06-4.267-2.823 0-4.109 2.385-4.109 4.603 0 .606-.473 1.096-1.06 1.096-.586 0-1.06-.49-1.06-1.096 0-3.377 2.14-6.795 6.23-6.795 3.639 0 6.18 2.656 6.18 6.459 0 3.111-1.885 4.553-3.401 5.71-1.48 1.13-2.647 2.023-2.647 4.215v1.699c0 .606-.476 1.096-1.06 1.096zM22.564 32.718c0 1.504-2.256 1.504-2.256 0s2.256-1.504 2.256 0"/>
    </g>
</svg>
