<?xml version="1.0" encoding="UTF-8"?>
<svg width="344px" height="14px" viewBox="0 0 344 14" version="1.1" xmlns="http://www.w3.org/2000/svg" xmlns:xlink="http://www.w3.org/1999/xlink">
    <!-- Generator: Sketch 54.1 (76490) - https://sketchapp.com -->
    <title>FY15.ADFLOGO.ONELINE</title>
    <desc>Created with Sketch.</desc>
    <defs>
        <polygon id="path-1" points="0.02415 0.06104 45.5906 0.06104 45.5906 13.9664 0.02415 13.9664"></polygon>
        <polygon id="path-3" points="0.456836957 0.06104 52.8070109 0.06104 52.8070109 13.9664 0.456836957 13.9664"></polygon>
        <polygon id="path-5" points="0.418826087 0.06104 25.992087 0.06104 25.992087 13.9664 0.418826087 13.9664"></polygon>
        <polygon id="path-7" points="0.474317757 0.06104 60.6379907 0.06104 60.6379907 13.9664 0.474317757 13.9664"></polygon>
    </defs>
    <g id="Page-1" stroke="none" stroke-width="1" fill="none" fill-rule="evenodd">
        <g id="2" transform="translate(-16.000000, -61.000000)">
            <g id="FY15.ADFLOGO.ONELINE" transform="translate(16.000000, 61.000000)">
                <path d="M3.60195493,7.78115153 C3.93103448,7.78115153 4.27151778,7.78745345 4.62612001,7.80005729 C4.97963617,7.81437983 5.3206625,7.82068175 5.64919902,7.82068175 C6.00271518,7.82068175 6.3573174,7.81667144 6.71083356,7.81036952 C7.06434971,7.8040676 7.41895194,7.79375537 7.7724681,7.78115153 L5.66820527,2.70123174 L3.60195493,7.78115153 Z M12,14 C11.8229704,13.9730736 11.6551724,13.9610427 11.4976921,13.9610427 C11.3391257,13.9610427 11.1729568,13.9610427 10.9953842,13.9610427 C10.8183546,13.9610427 10.6510996,13.9610427 10.4930763,13.9610427 C10.3345099,13.9610427 10.167255,13.9730736 9.9907684,14 C9.9022536,13.6946434 9.78224274,13.3245488 9.63073581,12.8902893 C9.47922889,12.4583214 9.3114309,12.0034374 9.12842791,11.5296477 C8.94542493,11.0581495 8.75807765,10.5780579 8.56910128,10.0899456 C8.37903883,9.60355199 8.20200923,9.14064738 8.03855553,8.69951303 C7.63399403,8.6869092 7.2229161,8.67716987 6.80532175,8.67029504 C6.38881347,8.66399313 5.97121911,8.66055571 5.55525387,8.66055571 C5.16263915,8.66055571 4.77762693,8.66399313 4.39858811,8.67029504 C4.01954928,8.67716987 3.63345099,8.6869092 3.24192235,8.69951303 C2.83681781,9.74047551 2.47081184,10.7298768 2.14281835,11.6705815 C1.8137388,12.6101404 1.56774369,13.387568 1.40320391,14 C1.18761879,13.9730736 0.954113494,13.9610427 0.70214499,13.9610427 C0.449090415,13.9610427 0.21449905,13.9730736 0,14 C1.02416508,11.6671441 2.02280749,9.34803781 2.9953842,7.04153538 C3.96850394,4.73331424 4.9481401,2.38728158 5.93374966,0 L6.29432528,0 C6.59733913,0.774563162 6.92533261,1.60985391 7.27993484,2.50988256 C7.63399403,3.4099112 7.99402661,4.31967918 8.36057562,5.24033228 C8.72658159,6.16041249 9.0931306,7.07476368 9.46022264,7.98052134 C9.82677165,8.886279 10.1710562,9.73016328 10.4930763,10.5116013 C10.8156394,11.2907476 11.1056204,11.9868233 11.3646484,12.5998281 C11.6236764,13.2145517 11.8354602,13.6797479 12,14 L12,14 Z" id="Fill-1" fill="#1A1919"></path>
                <path d="M16.3854096,7.05662108 C16.6038121,7.0685457 16.8449058,7.07450801 17.1086907,7.07450801 C17.5182664,7.07450801 17.9442932,7.03114576 18.386771,6.9427952 C18.8292489,6.85444463 19.2342864,6.69888259 19.6047198,6.47881921 C19.9740186,6.25875584 20.2803494,5.96172448 20.5254141,5.59043529 C20.7693442,5.21697799 20.8913093,4.74703969 20.8913093,4.18062041 C20.8913093,3.68737492 20.7954391,3.28031187 20.6042659,2.95997332 C20.4130928,2.63746664 20.1651917,2.38217145 19.8616973,2.1935457 C19.5582029,2.00491995 19.2280463,1.87483322 18.8712276,1.80599566 C18.5149762,1.73498999 18.1655321,1.70192628 17.8217608,1.70192628 C17.3599955,1.70192628 16.9770819,1.70951468 16.6735875,1.72956971 C16.3695258,1.74908272 16.1119809,1.77076384 15.900953,1.79623916 C15.8748582,2.49057705 15.8476288,3.17624249 15.8221012,3.85811374 C15.7954391,4.53835891 15.7818244,5.22077218 15.7818244,5.90101734 L15.7818244,6.98019513 C15.9673247,7.01759506 16.1687089,7.04307038 16.3854096,7.05662108 Z M14.1083504,3.45159273 C14.0754482,2.65101734 14.0391423,1.83363909 14,1 C14.3829135,1.02547532 14.7584525,1.04932455 15.1288859,1.06721147 C15.4981847,1.08672448 15.8748582,1.09648099 16.2572044,1.09648099 C16.6395507,1.09648099 17.0162242,1.08076217 17.3866576,1.04932455 C17.7559564,1.01788692 18.1314953,1 18.5149762,1 C19.0697754,1 19.5973451,1.05095063 20.0993873,1.15122582 C20.6014295,1.25366911 21.0399365,1.42061374 21.4160427,1.65476985 C21.7927161,1.88675784 22.0899705,2.1935457 22.3066712,2.5707972 C22.5250737,2.95021681 22.6339914,3.4239493 22.6339914,3.99036858 C22.6339914,4.59527185 22.4921715,5.1167028 22.2085319,5.55086724 C21.9243249,5.9871998 21.5777173,6.3471064 21.1692762,6.63004503 C20.7597005,6.91352568 20.3206263,7.13521514 19.8514863,7.29240327 C19.3834808,7.45013342 18.9574541,7.5542028 18.5745405,7.60515344 C18.7333787,7.79432121 18.9500794,8.05937292 19.2280463,8.39976651 C19.5048786,8.73961808 19.8151804,9.11470147 20.1589517,9.52610073 C20.5015884,9.93478986 20.8584071,10.3657021 21.2277059,10.8112492 C21.597572,11.2595063 21.9538235,11.6882505 22.2975947,12.0991077 C22.6402314,12.5083389 22.9641479,12.8834223 23.2676424,13.225442 C23.5711368,13.5658356 23.8162015,13.8232989 24,14 C23.8025868,13.9745247 23.604039,13.9631421 23.4066258,13.9631421 C23.2080781,13.9631421 23.0106649,13.9631421 22.8121171,13.9631421 C22.6277513,13.9631421 22.4365782,13.9631421 22.2380304,13.9631421 C22.0406172,13.9631421 21.8483095,13.9745247 21.6639437,14 C21.465396,13.7349483 21.1653052,13.3376418 20.7631042,12.8091644 C20.3597686,12.277977 19.9144543,11.7120997 19.4254595,11.1066544 C18.937032,10.5012091 18.4389607,9.89793195 17.9312457,9.29790694 C17.4229635,8.70059206 16.9566599,8.19108572 16.5351713,7.77426618 L15.7818244,7.77426618 L15.7818244,9.1558956 C15.7818244,9.99007672 15.7982755,10.8096231 15.8311777,11.6156187 C15.8640799,12.4237825 15.900953,13.2178536 15.9400953,14 C15.6371681,13.9745247 15.3138189,13.9631421 14.9700477,13.9631421 C14.6262764,13.9631421 14.3034944,13.9745247 14,14 C14.0391423,13.2178536 14.0754482,12.4237825 14.1083504,11.6156187 C14.1412526,10.8096231 14.1588382,9.99007672 14.1588382,9.1558956 L14.1588382,5.90101734 C14.1588382,5.06900434 14.1412526,4.25325217 14.1083504,3.45159273 L14.1083504,3.45159273 Z" id="Fill-2" fill="#1A1919"></path>
                <path d="M28.6019549,7.78115153 C28.9310345,7.78115153 29.2715178,7.78745345 29.62612,7.80005729 C29.9796362,7.81437983 30.3201195,7.82068175 30.649199,7.82068175 C31.0027152,7.82068175 31.3573174,7.81667144 31.7108336,7.81036952 C32.0643497,7.8040676 32.4189519,7.79375537 32.7724681,7.78115153 L30.6682053,2.70123174 L28.6019549,7.78115153 Z M37,14 C36.8224274,13.9730736 36.6551724,13.9610427 36.4976921,13.9610427 C36.3391257,13.9610427 36.1724138,13.9610427 35.9953842,13.9610427 C35.8183546,13.9610427 35.6505566,13.9610427 35.4930763,13.9610427 C35.3345099,13.9610427 35.167255,13.9730736 34.9907684,14 C34.9022536,13.6946434 34.7822427,13.3245488 34.6301928,12.8902893 C34.4792289,12.4583214 34.3114309,12.0034374 34.1284279,11.5296477 C33.9448819,11.0581495 33.7580777,10.5780579 33.5691013,10.0899456 C33.3790388,9.60355199 33.2014662,9.14064738 33.0380125,8.69951303 C32.633451,8.6869092 32.2229161,8.67716987 31.8053217,8.67029504 C31.3888135,8.66399313 30.9712191,8.66055571 30.5547108,8.66055571 C30.1626392,8.66055571 29.7776269,8.66399313 29.3985881,8.67029504 C29.0195493,8.67716987 28.633451,8.6869092 28.2413793,8.69951303 C27.8368178,9.74047551 27.4702688,10.7298768 27.1422753,11.6705815 C26.8137388,12.6101404 26.5672007,13.387568 26.4032039,14 C26.1876188,13.9730736 25.9535705,13.9610427 25.702145,13.9610427 C25.4485474,13.9610427 25.214499,13.9730736 25,14 C26.023622,11.6671441 27.0222645,9.34803781 27.9953842,7.04153538 C28.9679609,4.73331424 29.9481401,2.38728158 30.9337497,0 L31.2943253,0 C31.5973391,0.774563162 31.9253326,1.60985391 32.2799348,2.50988256 C32.633451,3.4099112 32.9940266,4.31967918 33.3600326,5.24033228 C33.7265816,6.16041249 34.0931306,7.07476368 34.4602226,7.98052134 C34.8262286,8.886279 35.1710562,9.73016328 35.4930763,10.5116013 C35.8150964,11.2907476 36.1056204,11.9868233 36.3646484,12.5998281 C36.6236764,13.2145517 36.8354602,13.6797479 37,14 L37,14 Z" id="Fill-3" fill="#1A1919"></path>
                <path d="M45.1142898,5.52048124 C46.0632857,7.30736179 47.0544719,9.14064738 48.0913163,11.0209109 C48.225401,10.7671154 48.4201705,10.4038957 48.6762029,9.92953309 C48.9316573,9.45803495 49.2269903,8.91377829 49.5639358,8.30077342 C49.9003034,7.68776855 50.259789,7.02492123 50.6429707,6.30993985 C51.0267302,5.59725007 51.4168473,4.87424807 51.8138997,4.14093383 C52.2097963,3.40761959 52.603381,2.68633629 52.994076,1.97994844 C53.384193,1.27356058 53.7465684,0.614723575 54.082936,0 L54.3459038,0 C54.4938593,1.2798625 54.6308337,2.51790318 54.7591389,3.71068462 C54.8868661,4.90346606 55.018061,6.07734174 55.1533015,7.23059295 C55.2873862,8.38384417 55.4214709,9.52449155 55.5561335,10.6508164 C55.6907961,11.7765683 55.8387516,12.8948725 56,14 C55.8387516,13.9730736 55.680393,13.9610427 55.52608,13.9610427 C55.3711891,13.9610427 55.2128305,13.9610427 55.0510042,13.9610427 C54.8897558,13.9610427 54.7319751,13.9610427 54.5776622,13.9610427 C54.4227713,13.9610427 54.2649906,13.9730736 54.1037422,14 C53.9552088,12.227442 53.8072533,10.507018 53.6592978,8.84101977 C53.5119202,7.17444858 53.3292877,5.475222 53.1142898,3.73990261 L53.0749892,3.73990261 C52.1462216,5.42079633 51.2353706,7.09137783 50.3407022,8.75164709 C49.4466118,10.4096247 48.5952897,12.1466628 47.7884699,13.9610427 L47.6069932,13.9610427 C46.8001734,12.2795761 45.9552088,10.5963907 45.0749892,8.91148668 C44.1936136,7.22429103 43.3087704,5.49985677 42.4210374,3.73990261 L42.3817367,3.73990261 C42.2869528,4.56717273 42.1823436,5.46433687 42.0679093,6.43082211 C41.9534749,7.39673446 41.8500217,8.35061587 41.7558156,9.28960183 C41.6610316,10.2308794 41.5806964,11.1183042 41.5136541,11.9513034 C41.4466118,12.7848754 41.4130906,13.4683472 41.4130906,14 C41.1969369,13.9730736 40.9611328,13.9610427 40.7068343,13.9610427 C40.4508019,13.9610427 40.2149978,13.9730736 40,14 C40.1751192,12.9195073 40.3565959,11.7811515 40.5450079,10.5797766 C40.7328421,9.38069321 40.9148967,8.17416213 41.0900159,6.96075623 C41.2639792,5.74735033 41.4252276,4.55055858 41.574339,3.36980808 C41.7222945,2.19020338 41.8500217,1.06788886 41.9569426,0 L42.3008236,0 C43.2278572,1.89515898 44.165872,3.73360069 45.1142898,5.52048124" id="Fill-4" fill="#1A1919"></path>
                <g id="Group-10" transform="translate(57.000000, 0.000000)">
                    <mask id="mask-2" fill="white">
                        <use xlink:href="#path-1"></use>
                    </mask>
                    <g id="Clip-6"></g>
                    <path d="M0.1334,2.8476 C0.100625,2.02048 0.063825,1.176 0.02415,0.31472 C0.197225,0.34104 0.365125,0.36568 0.526125,0.38416 C0.685975,0.40432 0.846975,0.4144 1.0074,0.4144 C1.167825,0.4144 1.328825,0.40432 1.48925,0.38416 C1.649675,0.36568 1.816425,0.34104 1.99065,0.31472 C1.95155,1.176 1.9136,2.02048 1.88025,2.8476 C1.8469,3.67584 1.830225,4.51864 1.830225,5.37824 L1.830225,8.74104 C1.830225,9.60288 1.8469,10.4496 1.88025,11.28232 C1.9136,12.11728 1.95155,12.93768 1.99065,13.74576 C1.683025,13.71944 1.35585,13.70768 1.0074,13.70768 C0.65895,13.70768 0.331775,13.71944 0.02415,13.74576 C0.063825,12.93768 0.100625,12.11728 0.1334,11.28232 C0.167325,10.4496 0.184575,9.60288 0.184575,8.74104 L0.184575,5.37824 C0.184575,4.51864 0.167325,3.67584 0.1334,2.8476" id="Fill-5" fill="#1A1919" mask="url(#mask-2)"></path>
                    <path d="M5.93515,11.91792 C6.1157,12.15984 6.337075,12.37712 6.59755,12.57424 C6.859175,12.76912 7.162775,12.92928 7.511225,13.0536 C7.8591,13.1768 8.247225,13.2384 8.6756,13.2384 C9.116625,13.2384 9.5151,13.1628 9.8693,13.01272 C10.224075,12.86488 10.525375,12.66104 10.7732,12.40736 C11.021025,12.15368 11.21135,11.85296 11.34475,11.508 C11.47815,11.16248 11.546,10.79456 11.546,10.40256 C11.546,9.80392 11.389025,9.32848 11.073925,8.9768 C10.759975,8.62344 10.367825,8.33112 9.899775,8.09536 C9.431725,7.86184 8.925725,7.6468 8.38465,7.45192 C7.842425,7.25648 7.337,7.01064 6.868375,6.71888 C6.400325,6.42432 6.008175,6.05024 5.694225,5.59328 C5.3797,5.13856 5.2233,4.52536 5.2233,3.75704 C5.2233,3.2088 5.32335,2.71152 5.52345,2.26072 C5.7247,1.8116 6.01565,1.42352 6.39745,1.09704 C6.77925,0.77168 7.236375,0.518 7.7717,0.33544 C8.3076,0.15232 8.90905,0.06104 9.57835,0.06104 C10.220625,0.06104 10.77665,0.13608 11.2447,0.28616 C11.713325,0.4368 12.148025,0.66808 12.549375,0.98112 C12.4292,1.20232 12.328,1.43584 12.248075,1.68392 C12.167575,1.93144 12.087075,2.24448 12.00715,2.62192 L11.766225,2.62192 C11.699525,2.4388 11.608675,2.24224 11.495975,2.0272 C11.38155,1.8116 11.228025,1.6128 11.03425,1.42968 C10.840475,1.24712 10.60875,1.0948 10.34195,0.97048 C10.074,0.84672 9.752575,0.784 9.378825,0.784 C9.002775,0.784 8.658925,0.8428 8.343825,0.9604 C8.0293,1.07856 7.755025,1.24488 7.521575,1.45992 C7.2864,1.67328 7.106425,1.93144 6.97935,2.23216 C6.852275,2.53064 6.78845,2.85768 6.78845,3.2088 C6.78845,3.82256 6.946,4.3036 7.260525,4.65528 C7.574475,5.00864 7.965475,5.30488 8.434675,5.54456 C8.902725,5.78648 9.407575,6.00152 9.9498,6.1908 C10.492025,6.37952 10.996875,6.6108 11.4655,6.8852 C11.934125,7.15736 12.325125,7.51072 12.63965,7.93912 C12.9536,8.36976 13.11115,8.94488 13.11115,9.66168 C13.11115,10.26032 13.00075,10.8276 12.7811,11.36128 C12.559725,11.89552 12.2383,12.36088 11.8174,12.75904 C11.394775,13.15664 10.879575,13.46352 10.27065,13.67912 C9.6623,13.89248 8.97,14 8.19375,14 C7.364025,14 6.691275,13.89248 6.176075,13.67912 C5.66145,13.46352 5.229625,13.21824 4.881175,12.94552 C5.001925,12.64536 5.085875,12.37544 5.13245,12.13352 C5.1796,11.8916 5.2233,11.58304 5.262975,11.20504 L5.5039,11.20504 C5.61085,11.43856 5.755175,11.67824 5.93515,11.91792" id="Fill-7" fill="#1A1919" mask="url(#mask-2)"></path>
                    <path d="M22.5469,7.66696 C22.894775,7.66696 23.255875,7.67312 23.63135,7.68544 C24.005675,7.69944 24.3662,7.7056 24.71465,7.7056 C25.088975,7.7056 25.46445,7.70168 25.838775,7.69552 C26.2131,7.68936 26.588575,7.67928 26.9629,7.66696 L24.734775,2.70144 L22.5469,7.66696 Z M31.439275,13.74576 C31.25125,13.71944 31.07415,13.70768 30.9074,13.70768 C30.7395,13.70768 30.562975,13.70768 30.375525,13.70768 C30.1875,13.70768 30.0104,13.70768 29.84365,13.70768 C29.67575,13.70768 29.49865,13.71944 29.311775,13.74576 C29.21805,13.44728 29.090975,13.08552 28.929975,12.66104 C28.76955,12.2388 28.59245,11.79416 28.398675,11.33104 C28.204325,10.87016 28.006525,10.40088 27.80585,9.92376 C27.605175,9.44832 27.41715,8.99584 27.244075,8.56464 C26.8157,8.55232 26.381,8.5428 25.938825,8.53608 C25.4978,8.52992 25.055625,8.52656 24.6146,8.52656 C24.19945,8.52656 23.791775,8.52992 23.390425,8.53608 C22.9885,8.5428 22.58025,8.55232 22.1651,8.56464 C21.736725,9.58216 21.3486,10.54928 21.0013,11.4688 C20.653425,12.3872 20.392375,13.14712 20.218725,13.74576 C19.989875,13.71944 19.742625,13.70768 19.475825,13.70768 C19.207875,13.70768 18.96005,13.71944 18.73235,13.74576 C19.8168,11.46544 20.874225,9.19856 21.904625,6.944 C22.93445,4.68776 23.97175,2.39456 25.01595,0.06104 L25.39775,0.06104 C25.7186,0.81816 26.0659,1.63464 26.441375,2.5144 C26.8157,3.39416 27.1975,4.28344 27.58505,5.18336 C27.973175,6.08272 28.360725,6.97648 28.75,7.86184 C29.13755,8.7472 29.502675,9.57208 29.84365,10.33592 C30.184625,11.09752 30.49225,11.77792 30.766525,12.37712 C31.0408,12.978 31.26505,13.43272 31.439275,13.74576 L31.439275,13.74576 Z" id="Fill-8" fill="#1A1919" mask="url(#mask-2)"></path>
                    <path d="M40.1304,8.67216 C38.391025,6.8544 36.6505,5.04728 34.911125,3.24744 C34.897325,3.61312 34.8841,4.10256 34.87145,4.71408 C34.858225,5.32728 34.85075,6.16224 34.85075,7.21616 C34.85075,7.49056 34.853625,7.82936 34.8611,8.23368 C34.867425,8.638 34.8749,9.06024 34.881225,9.5032 C34.888125,9.9484 34.897325,10.3964 34.911125,10.85392 C34.924925,11.30864 34.93815,11.73312 34.95195,12.12288 C34.9646,12.51544 34.977825,12.85648 34.991625,13.15048 C35.00485,13.44336 35.01865,13.64216 35.03245,13.74576 C34.8174,13.71944 34.58395,13.70768 34.329225,13.70768 C34.061275,13.70768 33.8146,13.71944 33.5869,13.74576 C33.61335,13.61584 33.64325,13.37448 33.6766,13.0228 C33.70995,12.67168 33.740425,12.25112 33.76745,11.76168 C33.793325,11.27448 33.8238,10.74248 33.85715,10.16904 C33.8905,9.59448 33.917525,9.0216 33.938225,8.44928 C33.95835,7.87416 33.975025,7.3136 33.98825,6.76704 C34.0009,6.2188 34.008375,5.7316 34.008375,5.30096 C34.008375,4.04992 34.0055,2.97528 33.998025,2.07592 C33.9917,1.176 33.975025,0.50568 33.948,0.06104 L34.26885,0.06104 C35.08535,0.92176 35.9582,1.84408 36.887975,2.82688 C37.818325,3.81248 38.74235,4.78296 39.6589,5.74168 C40.574875,6.69816 41.44485,7.60424 42.268825,8.4588 C43.091075,9.31224 43.8104,10.03968 44.426225,10.63832 L44.426225,7.98 C44.426225,6.6108 44.41645,5.27856 44.39575,3.98048 C44.3762,2.68464 44.3325,1.46216 44.265225,0.31472 C44.533175,0.38192 44.760875,0.4144 44.948325,0.4144 C45.10875,0.4144 45.32265,0.38192 45.5906,0.31472 C45.563575,0.60312 45.5331,1.03152 45.49975,1.60664 C45.4664,2.17952 45.43305,2.79272 45.3997,3.44456 C45.36635,4.0964 45.33645,4.73424 45.309425,5.35976 C45.281825,5.98528 45.269175,6.48704 45.269175,6.86504 C45.269175,7.19208 45.269175,7.58184 45.269175,8.03824 C45.269175,8.4812 45.272625,8.94488 45.27895,9.42592 C45.286425,9.90696 45.29275,10.39304 45.29965,10.88248 C45.305975,11.37192 45.3123,11.82664 45.3192,12.25112 C45.3261,12.67392 45.330125,13.04296 45.330125,13.356 C45.330125,13.64216 45.330125,13.85776 45.330125,14 L45.048375,14 C43.5091,12.26736 41.87035,10.49216 40.1304,8.67216" id="Fill-9" fill="#1A1919" mask="url(#mask-2)"></path>
                </g>
                <path d="M107.822682,13.168529 C108.088115,13.2314043 108.449279,13.2785607 108.904542,13.3099983 C109.360348,13.341436 109.829209,13.3571548 110.310579,13.3571548 C111.005711,13.3571548 111.702475,13.2747665 112.398695,13.1116161 C113.094914,12.9484656 113.718249,12.6378836 114.269785,12.1836641 C114.81969,11.7294446 115.268969,11.1082805 115.617079,10.3201718 C115.965189,9.53206304 116.139788,8.51359239 116.139788,7.26530187 C116.139788,6.16606905 116.003807,5.26576051 115.731303,4.55787191 C115.459342,3.85269346 115.085124,3.29386258 114.610824,2.88354736 C114.136524,2.47431621 113.569214,2.18920947 112.911613,2.03202135 C112.253468,1.87483322 111.531683,1.79623916 110.746261,1.79623916 C110.177318,1.79623916 109.645363,1.81358406 109.151482,1.8531521 C108.658145,1.89055203 108.214305,1.93391428 107.822682,1.98486491 C107.784063,2.59031021 107.755779,3.22339893 107.737286,3.88575717 C107.718249,4.54811541 107.708458,5.22077218 107.708458,5.90101734 L107.708458,9.1558956 C107.708458,10.518554 107.747076,11.8551951 107.822682,13.168529 Z M106.103889,3.45159273 C106.071798,2.65101734 106.037531,1.83363909 106,1 C106.480283,1.02547532 106.958934,1.04932455 107.433234,1.06721147 C107.907533,1.08672448 108.386184,1.09648099 108.867555,1.09648099 C109.347838,1.09648099 109.825945,1.08076217 110.300245,1.04932455 C110.775088,1.01788692 111.253196,1 111.733478,1 C112.847974,1 113.800925,1.14580554 114.592331,1.43633256 C115.383193,1.7274016 116.032091,2.14042695 116.538482,2.67486658 C117.04433,3.21201634 117.41474,3.86841227 117.649171,4.64297031 C117.883601,5.41915444 118,6.29236157 118,7.26530187 C118,8.52497498 117.781887,9.58843396 117.345118,10.4518846 C116.908349,11.3169613 116.351917,12.0145514 115.674191,12.5430287 C114.996465,13.0742161 114.250204,13.4492995 113.433234,13.6693629 C112.617351,13.8899683 111.835192,14 111.088931,14 C110.657601,14 110.23443,13.9940377 109.816154,13.9826551 C109.398967,13.9685624 108.97362,13.9631421 108.543922,13.9631421 C108.11368,13.9631421 107.689965,13.9631421 107.271689,13.9631421 C106.853957,13.9631421 106.430242,13.9745247 106,14 C106.037531,13.2178536 106.071798,12.4237825 106.103889,11.6156187 C106.135436,10.8096231 106.151754,9.99007672 106.151754,9.1558956 L106.151754,5.90101734 C106.151754,5.06900434 106.135436,4.25325217 106.103889,3.45159273 L106.103889,3.45159273 Z" id="Fill-11" fill="#1A1919"></path>
                <path d="M128.822682,13.168529 C129.088115,13.2314043 129.449279,13.2785607 129.905086,13.3099983 C130.360348,13.341436 130.828665,13.3571548 131.310579,13.3571548 C132.005711,13.3571548 132.701931,13.2747665 133.398151,13.1116161 C134.094914,12.9484656 134.718249,12.6378836 135.269241,12.1836641 C135.820234,11.7294446 136.268425,11.1082805 136.616535,10.3201718 C136.965189,9.53206304 137.139244,8.51359239 137.139244,7.26530187 C137.139244,6.16606905 137.003264,5.26576051 136.731303,4.55787191 C136.458798,3.85269346 136.085124,3.29386258 135.610824,2.88354736 C135.136524,2.47431621 134.569214,2.18920947 133.911069,2.03202135 C133.253468,1.87483322 132.531683,1.79623916 131.746261,1.79623916 C131.176775,1.79623916 130.645363,1.81358406 130.151482,1.8531521 C129.658145,1.89055203 129.214305,1.93391428 128.822682,1.98486491 C128.784063,2.59031021 128.755779,3.22339893 128.736742,3.88575717 C128.718249,4.54811541 128.707914,5.22077218 128.707914,5.90101734 L128.707914,9.1558956 C128.707914,10.518554 128.746532,11.8551951 128.822682,13.168529 Z M127.103345,3.45159273 C127.071798,2.65101734 127.037531,1.83363909 127,1 C127.480283,1.02547532 127.958934,1.04932455 128.433234,1.06721147 C128.907533,1.08672448 129.386184,1.09648099 129.867011,1.09648099 C130.347838,1.09648099 130.825945,1.08076217 131.300245,1.04932455 C131.775088,1.01788692 132.253196,1 132.733478,1 C133.848518,1 134.800925,1.14580554 135.592331,1.43633256 C136.383193,1.7274016 137.032091,2.14042695 137.537939,2.67486658 C138.043786,3.21201634 138.415284,3.86841227 138.648627,4.64297031 C138.883601,5.41915444 139,6.29236157 139,7.26530187 C139,8.52497498 138.781887,9.58843396 138.345118,10.4518846 C137.907805,11.3169613 137.351917,12.0145514 136.674191,12.5430287 C135.996465,13.0742161 135.24966,13.4492995 134.433234,13.6693629 C133.617351,13.8899683 132.835192,14 132.088387,14 C131.657601,14 131.23443,13.9940377 130.816154,13.9826551 C130.398967,13.9685624 129.974164,13.9631421 129.543922,13.9631421 C129.11368,13.9631421 128.689421,13.9631421 128.271145,13.9631421 C127.853957,13.9631421 127.429698,13.9745247 127,14 C127.037531,13.2178536 127.071798,12.4237825 127.103345,11.6156187 C127.134893,10.8096231 127.151754,9.99007672 127.151754,9.1558956 L127.151754,5.90101734 C127.151754,5.06900434 127.134893,4.25325217 127.103345,3.45159273 L127.103345,3.45159273 Z" id="Fill-12" fill="#1A1919"></path>
                <g id="Group-19" transform="translate(140.000000, 0.000000)">
                    <mask id="mask-4" fill="white">
                        <use xlink:href="#path-3"></use>
                    </mask>
                    <g id="Clip-14"></g>
                    <path d="M0.566293478,2.81904 C0.533456522,1.98408 0.496586957,1.14968 0.456836957,0.31472 C1.05942391,0.34104 1.65913043,0.36568 2.25653261,0.38416 C2.8533587,0.40432 3.45306522,0.4144 4.05680435,0.4144 C4.6593913,0.4144 5.25621739,0.40432 5.84613043,0.38416 C6.43661957,0.36568 7.03286957,0.34104 7.63603261,0.31472 C7.59628261,0.51184 7.57611957,0.70672 7.57611957,0.9016 C7.57611957,1.09704 7.59628261,1.2936 7.63603261,1.48848 C7.20684783,1.46216 6.8151087,1.43584 6.45966304,1.40952 C6.10479348,1.38544 5.72803261,1.35856 5.33341304,1.33224 C4.9376413,1.30592 4.505,1.28352 4.03606522,1.26336 C3.56655435,1.24488 3.00371739,1.2348 2.34697826,1.2348 C2.33315217,1.65144 2.31644565,2.04904 2.29628261,2.42704 C2.27669565,2.80504 2.26632609,3.23512 2.26632609,3.71672 C2.26632609,4.22632 2.26920652,4.72192 2.27669565,5.20352 C2.28303261,5.68456 2.28591304,6.05024 2.28591304,6.29832 C2.87640217,6.29832 3.40582609,6.29216 3.87533696,6.2776 C4.34427174,6.26584 4.77345652,6.2496 5.16231522,6.22888 C5.55059783,6.21096 5.91007609,6.1908 6.23844565,6.17008 C6.5673913,6.1516 6.87847826,6.12976 7.17401087,6.10288 C7.13368478,6.29832 7.11352174,6.4988 7.11352174,6.70824 C7.11352174,6.90368 7.13368478,7.10024 7.17401087,7.29512 C6.82547826,7.25648 6.41991304,7.224 5.95731522,7.19824 C5.4941413,7.17136 5.03154348,7.15512 4.56894565,7.14952 C4.10692391,7.14112 3.67025,7.13496 3.26180435,7.1288 C2.8533587,7.12264 2.52729348,7.11872 2.28591304,7.11872 C2.28591304,7.23632 2.28303261,7.36288 2.27669565,7.50064 C2.26920652,7.63672 2.26632609,7.8092 2.26632609,8.01808 L2.26632609,9.954 C2.26632609,10.69768 2.26920652,11.30864 2.27669565,11.79248 C2.28303261,12.27352 2.29340217,12.63864 2.30722826,12.88672 C2.74851087,12.88672 3.21802174,12.88672 3.71403261,12.88672 C4.22386957,12.88672 4.72333696,12.87664 5.21358696,12.85648 C5.7021087,12.838 6.16528261,12.81168 6.60080435,12.7792 C7.03632609,12.74672 7.4153913,12.698 7.73742391,12.63304 C7.71034783,12.72432 7.69306522,12.82344 7.68615217,12.93544 C7.67981522,13.0452 7.67693478,13.14712 7.67693478,13.2384 C7.67693478,13.44728 7.69652174,13.61584 7.73742391,13.74576 C7.13368478,13.71944 6.53282609,13.70768 5.93715217,13.70768 C5.33975,13.70768 4.73255435,13.70768 4.11671739,13.70768 C3.50030435,13.70768 2.89022826,13.70768 2.28591304,13.70768 C1.68332609,13.70768 1.07325,13.71944 0.456836957,13.74576 C0.496586957,12.9136 0.533456522,12.08256 0.566293478,11.25432 C0.600282609,10.4272 0.617565217,9.58216 0.617565217,8.72088 L0.617565217,5.35976 C0.617565217,4.49848 0.600282609,3.65176 0.566293478,2.81904" id="Fill-13" fill="#1A1919" mask="url(#mask-4)"></path>
                    <path d="M10.6622174,11.91792 C10.8431087,12.15984 11.0649022,12.37712 11.3258696,12.57424 C11.5879891,12.76912 11.892163,12.92928 12.2412717,13.0536 C12.5898043,13.1768 12.978663,13.2384 13.4078478,13.2384 C13.8497065,13.2384 14.2489348,13.1628 14.6043804,13.01272 C14.95925,12.86488 15.2611196,12.66104 15.5099891,12.40736 C15.7577065,12.15368 15.9483913,11.85296 16.0820435,11.508 C16.2156957,11.16248 16.28425,10.79456 16.28425,10.40256 C16.28425,9.80392 16.1258261,9.32848 15.8107065,8.9768 C15.496163,8.62344 15.1032717,8.33112 14.634337,8.09536 C14.1654022,7.86184 13.6584457,7.6468 13.1163478,7.45192 C12.5730978,7.25648 12.0661413,7.01064 11.5972065,6.71888 C11.1282717,6.42432 10.7353804,6.05024 10.420837,5.59328 C10.1057174,5.13856 9.94902174,4.52536 9.94902174,3.75704 C9.94902174,3.2088 10.0492609,2.71152 10.2497391,2.26072 C10.4513696,1.8116 10.7428696,1.42352 11.1253913,1.09704 C11.507913,0.77168 11.9659022,0.518 12.5022391,0.33544 C13.0391522,0.15232 13.6417391,0.06104 14.3123043,0.06104 C14.9557935,0.06104 15.5128696,0.13608 15.9818043,0.28616 C16.4513152,0.4368 16.886837,0.66808 17.2889457,0.98112 C17.1685435,1.20232 17.0671522,1.43584 16.9870761,1.68392 C16.9064239,1.93144 16.8263478,2.24448 16.7456957,2.62192 L16.5043152,2.62192 C16.4374891,2.4388 16.3464674,2.24224 16.2335543,2.0272 C16.118337,1.8116 15.9650978,1.6128 15.7709565,1.42968 C15.5768152,1.24712 15.3446522,1.0948 15.0773478,0.97048 C14.8088913,0.84672 14.4868587,0.784 14.1118261,0.784 C13.7356413,0.784 13.3911413,0.8428 13.0754457,0.9604 C12.75975,1.07856 12.4855326,1.24488 12.2516413,1.45992 C12.0160217,1.67328 11.8357065,1.93144 11.7083913,2.23216 C11.5810761,2.53064 11.5171304,2.85768 11.5171304,3.2088 C11.5171304,3.82256 11.6749783,4.3036 11.9900978,4.65528 C12.3046413,5.00864 12.6963804,5.30488 13.1664674,5.54456 C13.6354022,5.78648 14.1412065,6.00152 14.6844565,6.1908 C15.2277065,6.37952 15.7335109,6.6108 16.2035978,6.8852 C16.6725326,7.15736 17.0642717,7.51072 17.3793913,7.93912 C17.6939348,8.36976 17.8517826,8.94488 17.8517826,9.66168 C17.8517826,10.26032 17.7411739,10.8276 17.5205326,11.36128 C17.2993152,11.89552 16.9778587,12.36088 16.555587,12.75904 C16.132163,13.15664 15.6159891,13.46352 15.005913,13.67912 C14.395837,13.89248 13.7022283,14 12.925087,14 C12.0937935,14 11.4197717,13.89248 10.9035978,13.67912 C10.3874239,13.46352 9.9553587,13.21824 9.60625,12.94552 C9.72722826,12.64536 9.81076087,12.37544 9.858,12.13352 C9.90466304,11.8916 9.94902174,11.58304 9.98877174,11.20504 L10.2301522,11.20504 C10.3373043,11.43856 10.4813261,11.67824 10.6622174,11.91792" id="Fill-15" fill="#1A1919" mask="url(#mask-4)"></path>
                    <path d="M20.617,2.8476 C20.583587,2.02048 20.5472935,1.176 20.5075435,0.31472 C20.6809457,0.34104 20.849163,0.36568 21.0098913,0.38416 C21.1711957,0.40432 21.3319239,0.4144 21.4926522,0.4144 C21.6533804,0.4144 21.8141087,0.40432 21.975413,0.38416 C22.1361413,0.36568 22.3032065,0.34104 22.4777609,0.31472 C22.4380109,1.176 22.4005652,2.02048 22.3671522,2.8476 C22.3337391,3.67584 22.3170326,4.51864 22.3170326,5.37824 L22.3170326,8.74104 C22.3170326,9.60288 22.3337391,10.4496 22.3671522,11.28232 C22.4005652,12.11728 22.4380109,12.93768 22.4777609,13.74576 C22.1695543,13.71944 21.8417609,13.70768 21.4926522,13.70768 C21.1435435,13.70768 20.81575,13.71944 20.5075435,13.74576 C20.5472935,12.93768 20.583587,12.11728 20.617,11.28232 C20.650413,10.4496 20.6682717,9.60288 20.6682717,8.74104 L20.6682717,5.37824 C20.6682717,4.51864 20.650413,3.67584 20.617,2.8476" id="Fill-16" fill="#1A1919" mask="url(#mask-4)"></path>
                    <path d="M36.5475326,1.9964 C36.2445109,1.76288 35.9080761,1.55792 35.5405326,1.38096 C35.1729891,1.204 34.7633913,1.06176 34.3140435,0.95032 C33.8646957,0.84056 33.3853913,0.784 32.8749783,0.784 C32.0442609,0.784 31.27,0.91 30.5533478,1.15528 C29.8355435,1.40336 29.2116413,1.78528 28.6822174,2.2988 C28.1522174,2.81512 27.7374348,3.46696 27.4361413,4.25488 C27.1342717,5.0428 26.983337,5.97912 26.983337,7.05992 C26.983337,8.01248 27.1169891,8.87152 27.3854457,9.64152 C27.65275,10.41096 28.0462174,11.05888 28.5618152,11.5864 C29.0779891,12.11504 29.7076522,12.52104 30.4525326,12.80776 C31.196837,13.09392 32.0373478,13.2384 32.9769457,13.2384 C33.2575,13.2384 33.5524565,13.22608 33.8612391,13.1992 C34.1694457,13.17288 34.4672826,13.13424 34.75475,13.0816 C35.0433696,13.02896 35.3129783,12.96344 35.5612717,12.88672 C35.807837,12.80776 36.0209891,12.71648 36.1943913,12.61288 C36.2070652,12.22032 36.2174348,11.83056 36.2260761,11.43856 C36.2301087,11.04824 36.2335652,10.65064 36.2335652,10.24632 C36.2335652,9.7916 36.2260761,9.33464 36.2047609,8.87768 C36.1840217,8.4224 36.1609783,7.98616 36.1339022,7.56952 C36.4680326,7.63448 36.7894891,7.66696 37.0988478,7.66696 C37.2451739,7.66696 37.3938043,7.66136 37.5418587,7.6468 C37.6881848,7.63448 37.8304783,7.60816 37.9641304,7.56952 C37.9370543,7.868 37.9180435,8.34176 37.9036413,8.9852 C37.8892391,9.63088 37.8846304,10.48208 37.8846304,11.53768 C37.8846304,11.79808 37.8869348,12.0624 37.8926957,12.3284 C37.901337,12.59608 37.9036413,12.8604 37.9036413,13.12024 C37.6213587,13.22608 37.2705217,13.3336 36.84825,13.44336 C36.4259783,13.5548 35.9749022,13.64608 35.5007826,13.7172 C35.0243587,13.78832 34.5479348,13.85328 34.072663,13.91264 C33.5962391,13.97144 33.1635978,14 32.7753152,14 C31.5822391,14 30.5061087,13.85944 29.5469239,13.57944 C28.5883152,13.30112 27.7743043,12.86656 27.1037391,12.27968 C26.4331739,11.69448 25.917,10.96312 25.5552174,10.09008 C25.1928587,9.21648 25.0119674,8.20736 25.0119674,7.05992 C25.0119674,5.9528 25.2003478,4.96608 25.5753804,4.09864 C25.950413,3.23176 26.479837,2.49816 27.1642283,1.89896 C27.8474674,1.29976 28.6758804,0.8428 29.647163,0.52976 C30.6201739,0.21728 31.6963043,0.06104 32.8749783,0.06104 C33.5599457,0.06104 34.1659891,0.09744 34.6965652,0.16856 C35.225413,0.24192 35.6949239,0.33544 36.1045217,0.45304 C36.5118152,0.57064 36.8712935,0.6944 37.1783478,0.82488 C37.4877065,0.9548 37.7636522,1.07856 38.0038804,1.19616 C37.8973043,1.37872 37.8010978,1.6128 37.7135326,1.89896 C37.6259674,2.18512 37.5672065,2.45336 37.5418587,2.70144 L37.2999022,2.70144 C37.0988478,2.46568 36.84825,2.23216 36.5475326,1.9964" id="Fill-17" fill="#1A1919" mask="url(#mask-4)"></path>
                    <path d="M47.3347609,8.67216 C45.5926739,6.8544 43.8477065,5.04728 42.1050435,3.24744 C42.0923696,3.61312 42.0802717,4.10256 42.0675978,4.71408 C42.0531957,5.32728 42.0462826,6.16224 42.0462826,7.21616 C42.0462826,7.49056 42.048587,7.82936 42.0549239,8.23368 C42.0635652,8.638 42.0693261,9.06024 42.075663,9.5032 C42.0843043,9.9484 42.0923696,10.3964 42.1050435,10.85392 C42.1194457,11.30864 42.1344239,11.73312 42.1470978,12.12288 C42.1597717,12.51544 42.1718696,12.85648 42.1862717,13.15048 C42.20125,13.44336 42.2139239,13.64216 42.2265978,13.74576 C42.0134457,13.71944 41.7789783,13.70768 41.5243478,13.70768 C41.2547391,13.70768 41.0064457,13.71944 40.7806196,13.74576 C40.8053913,13.61584 40.8347717,13.37448 40.8681848,13.0228 C40.9015978,12.67168 40.9332826,12.25112 40.9603587,11.76168 C40.9857065,11.27448 41.0168152,10.74248 41.0502283,10.16904 C41.0830652,9.59448 41.1107174,9.0216 41.1314565,8.44928 C41.1527717,7.87416 41.1694783,7.3136 41.1815761,6.76704 C41.19425,6.2188 41.2023152,5.7316 41.2023152,5.30096 C41.2023152,4.04992 41.1988587,2.97528 41.1902174,2.07592 C41.1856087,1.176 41.1694783,0.50568 41.1400978,0.06104 L41.4621304,0.06104 C42.28075,0.92176 43.1540978,1.84408 44.0856304,2.82688 C45.0183152,3.81248 45.9452391,4.78296 46.8629457,5.74168 C47.7795,6.69816 48.6534239,7.60424 49.4766522,8.4588 C50.3016087,9.31224 51.0222935,10.03968 51.6392826,10.63832 L51.6392826,7.98 C51.6392826,6.6108 51.628337,5.27856 51.6075978,3.98048 C51.589163,2.68464 51.5453804,1.46216 51.4779783,0.31472 C51.7452826,0.38192 51.9757174,0.4144 52.1635217,0.4144 C52.3219457,0.4144 52.5374022,0.38192 52.8070109,0.31472 C52.7776304,0.60312 52.74825,1.03152 52.715413,1.60664 C52.6814239,2.17952 52.648587,2.79272 52.6145978,3.44456 C52.5811848,4.0964 52.5523804,4.73424 52.523,5.35976 C52.4976522,5.98528 52.4849783,6.48704 52.4849783,6.86504 C52.4849783,7.19208 52.4849783,7.58184 52.4849783,8.03824 C52.4849783,8.4812 52.4872826,8.94488 52.4936196,9.42592 C52.5022609,9.90696 52.5062935,10.39304 52.5143587,10.88248 C52.5206957,11.37192 52.5270326,11.82664 52.5350978,12.25112 C52.5397065,12.67392 52.5437391,13.04296 52.5437391,13.356 C52.5437391,13.64216 52.5437391,13.85776 52.5437391,14 L52.2637609,14 C50.7215761,12.26736 49.0791522,10.49216 47.3347609,8.67216" id="Fill-18" fill="#1A1919" mask="url(#mask-4)"></path>
                </g>
                <path d="M196.106338,3.4239493 C196.074215,2.61578552 196.038215,1.80816378 196,1 C196.58098,1.02547532 197.155313,1.04932455 197.729646,1.06721147 C198.30398,1.08672448 198.880529,1.09648099 199.460954,1.09648099 C200.039718,1.09648099 200.614052,1.08672448 201.180078,1.06721147 C201.749426,1.04932455 202.321544,1.02547532 202.90197,1 C202.863755,1.19079386 202.843817,1.37941961 202.843817,1.56804536 C202.843817,1.75721314 202.863755,1.94746498 202.90197,2.13609073 C202.489912,2.11061541 202.112746,2.08514009 201.771026,2.05966478 C201.429306,2.03635757 201.067648,2.01034023 200.688266,1.98486491 C200.308885,1.95938959 199.890735,1.93770847 199.441016,1.91819546 C198.990743,1.90030854 198.449086,1.89055203 197.817707,1.89055203 C197.804415,2.29382088 197.7878,2.67866077 197.769523,3.04452969 C197.749585,3.4103986 197.739615,3.82667612 197.739615,4.29282021 C197.739615,4.78606571 197.741277,5.26576051 197.749585,5.7319046 C197.755677,6.19750667 197.757892,6.55145097 197.757892,6.79156938 C198.326133,6.79156938 198.83456,6.78560707 199.28594,6.77151434 C199.738429,6.76013175 200.149933,6.74441294 200.523776,6.72435791 C200.897065,6.70701301 201.243215,6.6875 201.558351,6.66744496 C201.875702,6.64955804 202.172561,6.62841895 202.457789,6.6024016 C202.417913,6.79156938 202.399636,6.98561541 202.399636,7.18833389 C202.399636,7.37750167 202.417913,7.5677535 202.457789,7.75637925 C202.122162,7.71897932 201.732811,7.68754169 201.289184,7.66260841 C200.842788,7.63659106 200.396946,7.62087225 199.952765,7.61545197 C199.509138,7.60732155 199.089327,7.60135924 198.697761,7.59539693 C198.30398,7.58943462 197.990506,7.58564043 197.757892,7.58564043 C197.757892,7.69946631 197.755677,7.82196464 197.749585,7.95530354 C197.741277,8.08701634 197.739615,8.25396097 197.739615,8.45613742 L197.739615,10.3299283 C197.739615,11.0497415 197.741277,11.6410941 197.749585,12.1094063 C197.755677,12.5750083 197.765646,12.9284106 197.777831,13.168529 C198.203181,13.168529 198.653454,13.168529 199.131419,13.168529 C199.621568,13.168529 200.101749,13.1587725 200.574175,13.1392595 C201.043833,13.1213726 201.488013,13.0958973 201.907825,13.0644596 C202.325421,13.033022 202.690957,12.9858656 203,12.9229903 C202.972308,13.0113409 202.956247,13.1072799 202.950154,13.2156855 C202.944062,13.3219229 202.940185,13.420572 202.940185,13.5089226 C202.940185,13.7110991 202.960123,13.8742495 203,14 C202.417913,13.9745247 201.841364,13.9631421 201.268692,13.9631421 C200.694359,13.9631421 200.112272,13.9631421 199.516892,13.9631421 C198.927051,13.9631421 198.339979,13.9631421 197.757892,13.9631421 C197.179128,13.9631421 196.59261,13.9745247 196,14 C196.038215,13.1945464 196.074215,12.3901768 196.106338,11.5885173 C196.139014,10.787942 196.154522,9.97002168 196.154522,9.13638259 L196.154522,5.88313042 C196.154522,5.04949133 196.139014,4.22994496 196.106338,3.4239493" id="Fill-20" fill="#1A1919"></path>
                <path d="M208.386273,7.05662108 C208.604084,7.0685457 208.84515,7.07450801 209.110607,7.07450801 C209.5173,7.07450801 209.945547,7.03114576 210.386273,6.9427952 C210.830403,6.85444463 211.233693,6.69888259 211.603517,6.47881921 C211.974475,6.25875584 212.280771,5.96172448 212.525241,5.59043529 C212.768009,5.21697799 212.891662,4.74703969 212.891662,4.18062041 C212.891662,3.68737492 212.796937,3.28031187 212.603517,2.95997332 C212.414067,2.63746664 212.16506,2.38217145 211.862734,2.1935457 C211.558707,2.00491995 211.229155,1.87483322 210.871242,1.80599566 C210.515031,1.73498999 210.165627,1.70192628 209.822462,1.70192628 C209.361316,1.70192628 208.978446,1.70951468 208.674419,1.72956971 C208.369824,1.74908272 208.112876,1.77076384 207.900737,1.79623916 C207.876347,2.49057705 207.847419,3.17624249 207.822462,3.85811374 C207.795803,4.53835891 207.781622,5.22077218 207.781622,5.90101734 L207.781622,6.98019513 C207.966534,7.01759506 208.168463,7.04307038 208.386273,7.05662108 Z M206.109472,3.45159273 C206.076007,2.65101734 206.041407,1.83363909 206,1 C206.382303,1.02547532 206.758934,1.04932455 207.129325,1.06721147 C207.497448,1.08672448 207.876347,1.09648099 208.25865,1.09648099 C208.64152,1.09648099 209.015882,1.08076217 209.386273,1.04932455 C209.756098,1.01788692 210.131027,1 210.515031,1 C211.0692,1 211.597277,1.05095063 212.099263,1.15122582 C212.601248,1.25366911 213.039705,1.42061374 213.415769,1.65476985 C213.792967,1.88675784 214.089053,2.1935457 214.306863,2.5707972 C214.525241,2.95021681 214.634146,3.4239493 214.634146,3.99036858 C214.634146,4.59527185 214.491775,5.1167028 214.208168,5.55086724 C213.923993,5.9871998 213.578559,6.3471064 213.16903,6.63004503 C212.759501,6.91352568 212.319909,7.13521514 211.850822,7.29240327 C211.383437,7.45013342 210.958026,7.5542028 210.575156,7.60515344 C210.733409,7.79432121 210.949518,8.05937292 211.229155,8.39976651 C211.504821,8.73961808 211.815655,9.11470147 212.159387,9.52610073 C212.500284,9.93478986 212.858763,10.3657021 213.228588,10.8112492 C213.597277,11.2595063 213.952921,11.6882505 214.298355,12.0991077 C214.640386,12.5083389 214.9654,12.8834223 215.267725,13.225442 C215.570051,13.5658356 215.81679,13.8232989 216,14 C215.802609,13.9745247 215.60295,13.9631421 215.404991,13.9631421 C215.208168,13.9631421 215.01021,13.9631421 214.812819,13.9631421 C214.62734,13.9631421 214.436188,13.9631421 214.237096,13.9631421 C214.039138,13.9631421 213.847986,13.9745247 213.664776,14 C213.465116,13.7349483 213.16506,13.3376418 212.764039,12.8091644 C212.360749,12.277977 211.914351,11.7120997 211.427113,11.1066544 C210.937039,10.5012091 210.439024,9.89793195 209.931367,9.29790694 C209.422575,8.70059206 208.958026,8.19108572 208.534317,7.77426618 L207.781622,7.77426618 L207.781622,9.1558956 C207.781622,9.99007672 207.797504,10.8096231 207.83097,11.6156187 C207.863301,12.4237825 207.900737,13.2178536 207.941577,14 C207.63755,13.9745247 207.314804,13.9631421 206.971072,13.9631421 C206.62734,13.9631421 206.304027,13.9745247 206,14 C206.041407,13.2178536 206.076007,12.4237825 206.109472,11.6156187 C206.141804,10.8096231 206.160522,9.99007672 206.160522,9.1558956 L206.160522,5.90101734 C206.160522,5.06900434 206.141804,4.25325217 206.109472,3.45159273 L206.109472,3.45159273 Z" id="Fill-21" fill="#1A1919"></path>
                <path d="M224.102431,3.45159273 C224.070997,2.65101734 224.035228,1.83363909 224,1 C224.566352,1.02547532 225.130536,1.04932455 225.692552,1.06721147 C226.252942,1.08672448 226.818752,1.09648099 227.385104,1.09648099 C227.953081,1.09648099 228.527021,1.08672448 229.106922,1.06721147 C229.688448,1.04932455 230.317668,1.02547532 231,1 C230.962605,1.19079386 230.942552,1.37941961 230.942552,1.56804536 C230.942552,1.75721314 230.962605,1.94746498 231,2.13609073 C230.659647,2.09869079 230.248839,2.06345897 229.769201,2.03202135 C229.289563,2.00058372 228.80017,1.97510841 228.302648,1.95722148 C227.805125,1.93770847 227.32603,1.92198966 226.865903,1.90843896 C226.405776,1.89651434 226.022608,1.89055203 225.720192,1.89055203 C225.708269,2.3328469 225.698513,2.75346064 225.692552,3.15835557 C225.68659,3.56162442 225.682797,3.96651935 225.682797,4.36924616 C225.682797,4.81208306 225.68659,5.21697799 225.692552,5.59043529 C225.698513,5.96172448 225.702307,6.34927452 225.702307,6.75416945 C226.534221,6.75416945 227.357464,6.74007672 228.170951,6.7146014 C228.98498,6.69075217 229.787086,6.63980153 230.582688,6.56337558 C230.533369,6.75416945 230.506271,6.9427952 230.506271,7.13142095 C230.506271,7.3200467 230.533369,7.51084056 230.582688,7.69946631 C230.266181,7.66260841 229.912821,7.63279686 229.513936,7.61545197 C229.116677,7.59539693 228.704243,7.57967812 228.273382,7.5677535 C227.845231,7.5542028 227.410576,7.54824049 226.967792,7.54824049 C226.527718,7.54824049 226.105528,7.54824049 225.702307,7.54824049 L225.702307,9.1558956 C225.702307,9.99007672 225.718024,10.8096231 225.749458,11.6156187 C225.780892,12.4237825 225.81612,13.2178536 225.851889,14 C225.563023,13.9745247 225.254103,13.9631421 224.926216,13.9631421 C224.597786,13.9631421 224.288867,13.9745247 224,14 C224.035228,13.2178536 224.070997,12.4237825 224.102431,11.6156187 C224.133865,10.8096231 224.149582,9.99007672 224.149582,9.1558956 L224.149582,5.90101734 C224.149582,5.06900434 224.133865,4.25325217 224.102431,3.45159273" id="Fill-22" fill="#1A1919"></path>
                <path d="M236.385113,7.05662108 C236.602973,7.0685457 236.843527,7.07450801 237.107341,7.07450801 C237.518666,7.07450801 237.942471,7.03114576 238.387269,6.9427952 C238.82696,6.85444463 239.23488,6.69888259 239.604788,6.47881921 C239.973562,6.25875584 240.279927,5.96172448 240.524453,5.59043529 C240.769545,5.21697799 240.890957,4.74703969 240.890957,4.18062041 C240.890957,3.68737492 240.794508,3.28031187 240.605015,2.95997332 C240.411551,2.63746664 240.164757,2.38217145 239.860093,2.1935457 C239.557699,2.00491995 239.22637,1.87483322 238.870078,1.80599566 C238.514354,1.73498999 238.164303,1.70192628 237.82106,1.70192628 C237.358107,1.70192628 236.975718,1.70951468 236.672756,1.72956971 C236.368093,1.74908272 236.111086,1.77076384 235.901169,1.79623916 C235.872234,2.49057705 235.847838,3.17624249 235.820606,3.85811374 C235.794508,4.53835891 235.782027,5.22077218 235.782027,5.90101734 L235.782027,6.98019513 C235.966981,7.01759506 236.168955,7.04307038 236.385113,7.05662108 Z M234.107228,3.45159273 C234.073755,2.65101734 234.036877,1.83363909 234,1 C234.38239,1.02547532 234.756836,1.04932455 235.127879,1.06721147 C235.497787,1.08672448 235.872234,1.09648099 236.255191,1.09648099 C236.638148,1.09648099 237.016566,1.08076217 237.387042,1.04932455 C237.755248,1.01788692 238.131964,1 238.514354,1 C239.070351,1 239.596846,1.05095063 240.098945,1.15122582 C240.601044,1.25366911 241.039601,1.42061374 241.415749,1.65476985 C241.792466,1.88675784 242.090321,2.1935457 242.306479,2.5707972 C242.524906,2.95021681 242.633836,3.4239493 242.633836,3.99036858 C242.633836,4.59527185 242.492,5.1167028 242.207761,5.55086724 C241.924089,5.9871998 241.576308,6.3471064 241.168955,6.63004503 C240.759333,6.91352568 240.321343,7.13521514 239.85215,7.29240327 C239.382957,7.45013342 238.956882,7.5542028 238.574492,7.60515344 C238.732781,7.79432121 238.950641,8.05937292 239.22637,8.39976651 C239.504369,8.73961808 239.814706,9.11470147 240.158516,9.52610073 C240.501759,9.93478986 240.858051,10.3657021 241.226824,10.8112492 C241.596732,11.2595063 241.954726,11.6882505 242.296267,12.0991077 C242.640077,12.5083389 242.962896,12.8834223 243.267559,13.225442 C243.571656,13.5658356 243.815046,13.8232989 244,14 C243.802564,13.9745247 243.605129,13.9631421 243.407126,13.9631421 C243.207988,13.9631421 243.010553,13.9631421 242.810848,13.9631421 C242.627596,13.9631421 242.436401,13.9631421 242.238965,13.9631421 C242.040962,13.9631421 241.847498,13.9745247 241.662544,14 C241.465676,13.7349483 241.164416,13.3376418 240.761035,12.8091644 C240.358221,12.277977 239.913423,11.7120997 239.423806,11.1066544 C238.936458,10.5012091 238.43833,9.89793195 237.92999,9.29790694 C237.422217,8.70059206 236.954726,8.19108572 236.534892,7.77426618 L235.782027,7.77426618 L235.782027,9.1558956 C235.782027,9.99007672 235.79848,10.8096231 235.831385,11.6156187 C235.864291,12.4237825 235.901169,13.2178536 235.938046,14 C235.635652,13.9745247 235.312833,13.9631421 234.969023,13.9631421 C234.62578,13.9631421 234.302962,13.9745247 234,14 C234.036877,13.2178536 234.073755,12.4237825 234.107228,11.6156187 C234.139567,10.8096231 234.156587,9.99007672 234.156587,9.1558956 L234.156587,5.90101734 C234.156587,5.06900434 234.139567,4.25325217 234.107228,3.45159273 L234.107228,3.45159273 Z" id="Fill-23" fill="#1A1919"></path>
                <g id="Group-27" transform="translate(244.000000, 0.000000)">
                    <mask id="mask-6" fill="white">
                        <use xlink:href="#path-5"></use>
                    </mask>
                    <g id="Clip-25"></g>
                    <path d="M4.17073913,7.66696 C4.51043478,7.66696 4.86708696,7.67312 5.23673913,7.68544 C5.60356522,7.69944 5.95795652,7.7056 6.29991304,7.7056 C6.66730435,7.7056 7.0363913,7.70168 7.40547826,7.69552 C7.77456522,7.68936 8.14308696,7.67928 8.51047826,7.66696 L6.31913043,2.70144 L4.17073913,7.66696 Z M12.9118261,13.74576 C12.7275652,13.71944 12.5506522,13.70768 12.3867391,13.70768 C12.2228261,13.70768 12.0504348,13.70768 11.8661739,13.70768 C11.6813478,13.70768 11.505,13.70768 11.341087,13.70768 C11.1771739,13.70768 11.003087,13.71944 10.821087,13.74576 C10.7266957,13.44728 10.6034783,13.08552 10.4435217,12.66104 C10.2875217,12.2388 10.1111739,11.79416 9.92295652,11.33104 C9.73021739,10.87016 9.53747826,10.40088 9.34021739,9.92376 C9.14182609,9.44832 8.95756522,8.99584 8.78686957,8.56464 C8.36465217,8.55232 7.93847826,8.5428 7.50326087,8.53608 C7.06917391,8.52992 6.63452174,8.52656 6.20213043,8.52656 C5.79404348,8.52656 5.39217391,8.52992 4.99878261,8.53608 C4.60482609,8.5428 4.20352174,8.55232 3.79317391,8.56464 C3.37321739,9.58216 2.99169565,10.54928 2.64973913,11.4688 C2.30947826,12.3872 2.05117391,13.14712 1.88047826,13.74576 C1.65778261,13.71944 1.4136087,13.70768 1.15078261,13.70768 C0.88626087,13.70768 0.644913043,13.71944 0.418826087,13.74576 C1.4853913,11.46544 2.52652174,9.19856 3.5393913,6.944 C4.55169565,4.68776 5.57021739,2.39456 6.59778261,0.06104 L6.97082609,0.06104 C7.28678261,0.81816 7.62873913,1.63464 7.99782609,2.5144 C8.36465217,3.39416 8.74221739,4.28344 9.12317391,5.18336 C9.50413043,6.08272 9.88565217,6.97648 10.2671739,7.86184 C10.6486957,8.7472 11.0076087,9.57208 11.341087,10.33592 C11.6773913,11.09752 11.980913,11.77792 12.2493913,12.37712 C12.5178696,12.978 12.7394348,13.43272 12.9118261,13.74576 L12.9118261,13.74576 Z" id="Fill-24" fill="#1A1919" mask="url(#mask-6)"></path>
                    <path d="M24.5632174,1.9964 C24.2664783,1.76288 23.9363913,1.55792 23.5752174,1.38096 C23.2146087,1.204 22.8127391,1.06176 22.3718696,0.95032 C21.9315652,0.84056 21.4596087,0.784 20.9593913,0.784 C20.1437826,0.784 19.3852609,0.91 18.6821304,1.15528 C17.979,1.40336 17.3663043,1.78528 16.8474348,2.2988 C16.3268696,2.81512 15.9210435,3.46696 15.6237391,4.25488 C15.3264348,5.0428 15.1783478,5.97912 15.1783478,7.05992 C15.1783478,8.01248 15.3100435,8.87152 15.5745652,9.64152 C15.8368261,10.41096 16.2223043,11.05888 16.7287391,11.5864 C17.2346087,12.11504 17.8518261,12.52104 18.5837826,12.80776 C19.3134783,13.09392 20.1398261,13.2384 21.06,13.2384 C21.3369565,13.2384 21.624087,13.22608 21.9270435,13.1992 C22.2305652,13.17288 22.5216522,13.13424 22.8048261,13.0816 C23.0874348,13.02896 23.3513913,12.96344 23.5955652,12.88672 C23.8380435,12.80776 24.0466087,12.71648 24.2173043,12.61288 C24.2291739,12.22032 24.2393478,11.83056 24.2472609,11.43856 C24.2517826,11.04824 24.2557391,10.65064 24.2557391,10.24632 C24.2557391,9.7916 24.2472609,9.33464 24.226913,8.87768 C24.2065652,8.4224 24.1839565,7.98616 24.1573913,7.56952 C24.4852174,7.63448 24.8011739,7.66696 25.1046957,7.66696 C25.2482609,7.66696 25.3935217,7.66136 25.5393478,7.6468 C25.6823478,7.63448 25.8225217,7.60816 25.953087,7.56952 C25.9265217,7.868 25.9084348,8.34176 25.8943043,8.9852 C25.8796087,9.63088 25.875087,10.48208 25.875087,11.53768 C25.875087,11.79808 25.8773478,12.0624 25.8835652,12.3284 C25.8920435,12.59608 25.8943043,12.8604 25.8943043,13.12024 C25.6167826,13.22608 25.2725652,13.3336 24.8582609,13.44336 C24.4445217,13.5548 24.0019565,13.64608 23.5367826,13.7172 C23.0687826,13.78832 22.6013478,13.85328 22.1361739,13.91264 C21.6687391,13.97144 21.2425652,14 20.8610435,14 C19.6927391,14 18.6352174,13.85944 17.6963913,13.57944 C16.7536087,13.30112 15.9555217,12.86656 15.2976087,12.27968 C14.6391304,11.69448 14.1332609,10.96312 13.7788696,10.09008 C13.423913,9.21648 13.2458696,8.20736 13.2458696,7.05992 C13.2458696,5.9528 13.4301304,4.96608 13.7969565,4.09864 C14.1660435,3.23176 14.6866087,2.49816 15.3569565,1.89896 C16.0273043,1.29976 16.8395217,0.8428 17.7941739,0.52976 C18.7476957,0.21728 19.8035217,0.06104 20.9593913,0.06104 C21.6314348,0.06104 22.2266087,0.09744 22.7471739,0.16856 C23.2654783,0.24192 23.7272609,0.33544 24.1285652,0.45304 C24.5281739,0.57064 24.8814348,0.6944 25.1826957,0.82488 C25.4856522,0.9548 25.7563913,1.07856 25.992087,1.19616 C25.8875217,1.37872 25.7936957,1.6128 25.7072174,1.89896 C25.6213043,2.18512 25.5642174,2.45336 25.5393478,2.70144 L25.3013913,2.70144 C25.1046957,2.46568 24.8582609,2.23216 24.5632174,1.9964" id="Fill-26" fill="#1A1919" mask="url(#mask-6)"></path>
                </g>
                <path d="M275.386273,7.05662108 C275.604651,7.0685457 275.845718,7.07450801 276.111174,7.07450801 C276.518434,7.07450801 276.945547,7.03114576 277.386273,6.9427952 C277.83097,6.85444463 278.233693,6.69888259 278.604084,6.47881921 C278.974475,6.25875584 279.281339,5.96172448 279.525808,5.59043529 C279.768576,5.21697799 279.892229,4.74703969 279.892229,4.18062041 C279.892229,3.68737492 279.797504,3.28031187 279.604084,2.95997332 C279.414634,2.63746664 279.166194,2.38217145 278.863301,2.1935457 C278.558707,2.00491995 278.229722,1.87483322 277.871809,1.80599566 C277.515598,1.73498999 277.166194,1.70192628 276.823029,1.70192628 C276.361883,1.70192628 275.979013,1.70951468 275.674419,1.72956971 C275.370391,1.74908272 275.112876,1.77076384 274.901305,1.79623916 C274.876347,2.49057705 274.847419,3.17624249 274.823029,3.85811374 C274.79637,4.53835891 274.782189,5.22077218 274.782189,5.90101734 L274.782189,6.98019513 C274.967102,7.01759506 275.16903,7.04307038 275.386273,7.05662108 Z M273.109472,3.45159273 C273.076574,2.65101734 273.041974,1.83363909 273,1 C273.38287,1.02547532 273.759501,1.04932455 274.129892,1.06721147 C274.498015,1.08672448 274.876347,1.09648099 275.259217,1.09648099 C275.642087,1.09648099 276.016449,1.08076217 276.386273,1.04932455 C276.756665,1.01788692 277.131594,1 277.515598,1 C278.0692,1 278.598412,1.05095063 279.09983,1.15122582 C279.601815,1.25366911 280.040272,1.42061374 280.416903,1.65476985 C280.792967,1.88675784 281.089053,2.1935457 281.307431,2.5707972 C281.525808,2.95021681 281.634146,3.4239493 281.634146,3.99036858 C281.634146,4.59527185 281.492343,5.1167028 281.208735,5.55086724 C280.92456,5.9871998 280.579126,6.3471064 280.169597,6.63004503 C279.760068,6.91352568 279.319909,7.13521514 278.85139,7.29240327 C278.384005,7.45013342 277.958593,7.5542028 277.575723,7.60515344 C277.733976,7.79432121 277.950085,8.05937292 278.229722,8.39976651 C278.505389,8.73961808 278.815655,9.11470147 279.159955,9.52610073 C279.500851,9.93478986 279.858763,10.3657021 280.229722,10.8112492 C280.597845,11.2595063 280.953488,11.6882505 281.298922,12.0991077 C281.640953,12.5083389 281.9654,12.8834223 282.267725,13.225442 C282.570051,13.5658356 282.817357,13.8232989 283,14 C282.803176,13.9745247 282.603517,13.9631421 282.405559,13.9631421 C282.208168,13.9631421 282.010777,13.9631421 281.813386,13.9631421 C281.627907,13.9631421 281.436756,13.9631421 281.237663,13.9631421 C281.039705,13.9631421 280.848554,13.9745247 280.665343,14 C280.466251,13.7349483 280.165627,13.3376418 279.764039,12.8091644 C279.360749,12.277977 278.914918,11.7120997 278.427113,11.1066544 C277.937606,10.5012091 277.440159,9.89793195 276.931367,9.29790694 C276.42371,8.70059206 275.958593,8.19108572 275.534884,7.77426618 L274.782189,7.77426618 L274.782189,9.1558956 C274.782189,9.99007672 274.798071,10.8096231 274.831537,11.6156187 C274.864436,12.4237825 274.901305,13.2178536 274.942144,14 C274.638117,13.9745247 274.314804,13.9631421 273.971072,13.9631421 C273.627907,13.9631421 273.305162,13.9745247 273,14 C273.041974,13.2178536 273.076574,12.4237825 273.109472,11.6156187 C273.142371,10.8096231 273.161089,9.99007672 273.161089,9.1558956 L273.161089,5.90101734 C273.161089,5.06900434 273.142371,4.25325217 273.109472,3.45159273 L273.109472,3.45159273 Z" id="Fill-28" fill="#1A1919"></path>
                <g id="Group-35" transform="translate(283.000000, 0.000000)">
                    <mask id="mask-8" fill="white">
                        <use xlink:href="#path-7"></use>
                    </mask>
                    <g id="Clip-30"></g>
                    <path d="M4.25460748,7.66696 C4.6012243,7.66696 4.95696262,7.67312 5.32980374,7.68544 C5.70150467,7.69944 6.05952336,7.7056 6.40442991,7.7056 C6.77670093,7.7056 7.14897196,7.70168 7.51896262,7.69552 C7.88895327,7.68936 8.2612243,7.67928 8.63349533,7.66696 L6.42552336,2.70144 L4.25460748,7.66696 Z M13.0705327,13.74576 C12.8846822,13.71944 12.7108037,13.70768 12.5454766,13.70768 C12.3778692,13.70768 12.2022804,13.70768 12.0158598,13.70768 C11.8300093,13.70768 11.6561308,13.70768 11.4908037,13.70768 C11.3231963,13.70768 11.1481776,13.71944 10.961757,13.74576 C10.8705421,13.44728 10.7428411,13.08552 10.5849252,12.66104 C10.4241589,12.2388 10.2502804,11.79416 10.0558785,11.33104 C9.86603738,10.87016 9.66707477,10.40088 9.46868224,9.92376 C9.27028972,9.44832 9.08443925,8.99584 8.91284112,8.56464 C8.48869159,8.55232 8.05656075,8.5428 7.61815888,8.53608 C7.18203738,8.52992 6.74363551,8.52656 6.30580374,8.52656 C5.89362617,8.52656 5.49057009,8.52992 5.09207477,8.53608 C4.69243925,8.5428 4.2876729,8.55232 3.87834579,8.56464 C3.45191589,9.58216 3.0676729,10.54928 2.72390654,11.4688 C2.37671963,12.3872 2.12074766,13.14712 1.94686916,13.74576 C1.71940187,13.71944 1.47540187,13.70768 1.2108785,13.70768 C0.945785047,13.70768 0.698364486,13.71944 0.474317757,13.74576 C1.55008411,11.46544 2.59620561,9.19856 3.61781308,6.944 C4.63885047,4.68776 5.66843925,2.39456 6.70258879,0.06104 L7.08284112,0.06104 C7.40095327,0.81816 7.74414953,1.63464 8.11642056,2.5144 C8.48869159,3.39416 8.86495327,4.28344 9.24976636,5.18336 C9.63400935,6.08272 10.0188224,6.97648 10.4053458,7.86184 C10.7901589,8.7472 11.1521682,9.57208 11.4908037,10.33592 C11.827729,11.09752 12.1315888,11.77792 12.4052336,12.37712 C12.6777383,12.978 12.8989346,13.43272 13.0705327,13.74576 L13.0705327,13.74576 Z" id="Fill-29" fill="#1A1919" mask="url(#mask-8)"></path>
                    <path d="M21.6681121,8.67216 C19.9430093,6.8544 18.2190467,5.04728 16.4950841,3.24744 C16.481972,3.61312 16.4677196,4.10256 16.4551776,4.71408 C16.4409252,5.32728 16.4346542,6.16224 16.4346542,7.21616 C16.4346542,7.49056 16.4369346,7.82936 16.4449159,8.23368 C16.4511869,8.638 16.4574579,9.06024 16.4660093,9.5032 C16.4722804,9.9484 16.481972,10.3964 16.4950841,10.85392 C16.5070561,11.30864 16.5213084,11.73312 16.5361308,12.12288 C16.5481028,12.51544 16.5606449,12.85648 16.5731869,13.15048 C16.5880093,13.44336 16.6022617,13.64216 16.6148037,13.74576 C16.4015888,13.71944 16.1695607,13.70768 15.9175794,13.70768 C15.6507757,13.70768 15.4067757,13.71944 15.1815888,13.74576 C15.2089533,13.61584 15.238028,13.37448 15.2705234,13.0228 C15.3035888,12.67168 15.3326636,12.25112 15.3611682,11.76168 C15.3862523,11.27448 15.4153271,10.74248 15.4483925,10.16904 C15.4814579,9.59448 15.5105327,9.0216 15.5310561,8.44928 C15.5492991,7.87416 15.5664019,7.3136 15.5806542,6.76704 C15.5931963,6.2188 15.5988972,5.7316 15.5988972,5.30096 C15.5988972,4.04992 15.5971869,2.97528 15.5892056,2.07592 C15.5829346,1.176 15.5664019,0.50568 15.5396075,0.06104 L15.8577196,0.06104 C16.6683925,0.92176 17.5326542,1.84408 18.4544953,2.82688 C19.3769065,3.81248 20.2930467,4.78296 21.2006355,5.74168 C22.1099346,6.69816 22.972486,7.60424 23.7894299,8.4588 C24.6035234,9.31224 25.3189907,10.03968 25.9272804,10.63832 L25.9272804,7.98 C25.9272804,6.6108 25.918729,5.27856 25.8982056,3.98048 C25.8776822,2.68464 25.8360654,1.46216 25.7699346,0.31472 C26.0344579,0.38192 26.260215,0.4144 26.4460654,0.4144 C26.6051215,0.4144 26.8160561,0.38192 27.0828598,0.31472 C27.0560654,0.60312 27.0269907,1.03152 26.9939252,1.60664 C26.9608598,2.17952 26.9277944,2.79272 26.894729,3.44456 C26.8616636,4.0964 26.8303084,4.73424 26.8040841,5.35976 C26.7767196,5.98528 26.7641776,6.48704 26.7641776,6.86504 C26.7641776,7.19208 26.7641776,7.58184 26.7641776,8.03824 C26.7641776,8.4812 26.7664579,8.94488 26.7750093,9.42592 C26.7812804,9.90696 26.7869813,10.39304 26.7955327,10.88248 C26.7995234,11.37192 26.8075047,11.82664 26.8137757,12.25112 C26.8200467,12.67392 26.8246075,13.04296 26.8246075,13.356 C26.8246075,13.64216 26.8246075,13.85776 26.8246075,14 L26.5452617,14 C25.0196916,12.26736 23.3943551,10.49216 21.6681121,8.67216" id="Fill-31" fill="#1A1919" mask="url(#mask-8)"></path>
                    <path d="M39.9703925,13.28712 C39.7098598,13.41088 39.399729,13.52288 39.033729,13.61976 C38.667729,13.7172 38.2601121,13.80456 37.8097383,13.88408 C37.3587944,13.96136 36.8873271,14 36.3976168,14 C35.3469346,14 34.379486,13.85328 33.4907103,13.56096 C32.6013645,13.2664 31.8362991,12.82176 31.1915234,12.22032 C30.5484579,11.62168 30.0456355,10.88808 29.6802056,10.02288 C29.3142056,9.156 29.1323458,8.16872 29.1323458,7.05992 C29.1323458,5.9528 29.3142056,4.96608 29.6802056,4.09864 C30.0456355,3.23176 30.554729,2.49816 31.2120467,1.89896 C31.8693645,1.29976 32.6549533,0.8428 33.5710935,0.52976 C34.4872336,0.21728 35.4940187,0.06104 36.5960093,0.06104 C37.472243,0.06104 38.2709439,0.15064 38.9943925,0.3248 C39.7184112,0.50176 40.3569159,0.71288 40.9133271,0.9604 C40.8078598,1.14352 40.7229159,1.39104 40.656785,1.70408 C40.5906542,2.01712 40.5364953,2.2764 40.4954486,2.48584 L40.375729,2.52448 C40.2434673,2.36824 40.0576168,2.19352 39.8198879,1.9964 C39.5815888,1.80152 39.302243,1.6128 38.9841308,1.42968 C38.6654486,1.24712 38.308,1.0948 37.9089346,0.97048 C37.5098692,0.84672 37.0737477,0.784 36.5960093,0.784 C35.8121308,0.784 35.086972,0.91 34.4165421,1.15528 C33.7466822,1.40336 33.1640467,1.78528 32.665785,2.2988 C32.1675234,2.81512 31.7781495,3.46696 31.5016542,4.25488 C31.2223084,5.0428 31.0832056,5.97912 31.0832056,7.05992 C31.0832056,8.1424 31.2223084,9.07648 31.5016542,9.86664 C31.7781495,10.65456 32.1675234,11.3064 32.665785,11.82048 C33.1640467,12.33624 33.7466822,12.71648 34.4165421,12.96344 C35.086972,13.21208 35.8121308,13.33528 36.5960093,13.33528 C37.0737477,13.33528 37.5144299,13.27648 37.9191963,13.15888 C38.3245327,13.04296 38.6968037,12.90296 39.033729,12.74056 C39.3712243,12.57592 39.6767944,12.4012 39.9498692,12.21248 C40.2206636,12.02376 40.4498411,11.85688 40.6362617,11.71296 L40.7149346,11.79248 L40.5364953,12.94552 C40.4173458,13.04912 40.2269346,13.1628 39.9703925,13.28712" id="Fill-32" fill="#1A1919" mask="url(#mask-8)"></path>
                    <path d="M43.5101028,2.81904 C43.4770374,1.98408 43.4416916,1.14968 43.4029252,0.31472 C43.9981028,0.34104 44.5938505,0.36568 45.1850374,0.38416 C45.774514,0.40432 46.3674112,0.4144 46.9654393,0.4144 C47.5628972,0.4144 48.1518037,0.40432 48.7372897,0.38416 C49.3204953,0.36568 49.9116822,0.34104 50.5068598,0.31472 C50.4675234,0.51184 50.4492804,0.70672 50.4492804,0.9016 C50.4492804,1.09704 50.4675234,1.2936 50.5068598,1.48848 C50.0815701,1.46216 49.6944766,1.43584 49.3432991,1.40952 C48.9915514,1.38544 48.6192804,1.35856 48.2287664,1.33224 C47.8354019,1.30592 47.4095421,1.28352 46.9449159,1.26336 C46.4791495,1.24488 45.9233084,1.2348 45.2716916,1.2348 C45.2597196,1.65144 45.2426168,2.04904 45.2220935,2.42704 C45.2032804,2.80504 45.1930187,3.23512 45.1930187,3.71672 C45.1930187,4.22632 45.1970093,4.72192 45.2032804,5.20352 C45.2101215,5.68456 45.2141121,6.05024 45.2141121,6.29832 C45.7967477,6.29832 46.3223738,6.29216 46.7852897,6.2776 C47.2487757,6.26584 47.6746355,6.2496 48.0588785,6.22888 C48.4436916,6.21096 48.7994299,6.1908 49.1238131,6.17008 C49.4481963,6.1516 49.7583271,6.12976 50.050215,6.10288 C50.0108785,6.29832 49.9903551,6.4988 49.9903551,6.70824 C49.9903551,6.90368 50.0108785,7.10024 50.050215,7.29512 C49.7053084,7.25648 49.3033925,7.224 48.8450374,7.19824 C48.3878224,7.17136 47.9306075,7.15512 47.4722523,7.14952 C47.0150374,7.14112 46.5829065,7.13496 46.1775701,7.1288 C45.774514,7.12264 45.4518411,7.11872 45.2141121,7.11872 C45.2141121,7.23632 45.2101215,7.36288 45.2032804,7.50064 C45.1970093,7.63672 45.1930187,7.8092 45.1930187,8.01808 L45.1930187,9.954 C45.1930187,10.69768 45.1970093,11.30864 45.2032804,11.79248 C45.2101215,12.27352 45.2198131,12.63864 45.2346355,12.88672 C45.670757,12.88672 46.1365234,12.88672 46.6262336,12.88672 C47.1307664,12.88672 47.6244673,12.87664 48.1084766,12.85648 C48.592486,12.838 49.0514112,12.81168 49.4812617,12.7792 C49.9139626,12.74672 50.2879439,12.698 50.6066262,12.63304 C50.5815421,12.72432 50.5644393,12.82344 50.557028,12.93544 C50.5501869,13.0452 50.5484766,13.14712 50.5484766,13.2384 C50.5484766,13.44728 50.5667196,13.61584 50.6066262,13.74576 C50.0108785,13.71944 49.4157009,13.70768 48.8262243,13.70768 C48.2344673,13.70768 47.6330187,13.70768 47.024729,13.70768 C46.4130187,13.70768 45.8092897,13.70768 45.2141121,13.70768 C44.6166542,13.70768 44.0123551,13.71944 43.4029252,13.74576 C43.4416916,12.9136 43.4770374,12.08256 43.5101028,11.25432 C43.5431682,10.4272 43.5619813,9.58216 43.5619813,8.72088 L43.5619813,5.35976 C43.5619813,4.49848 43.5431682,3.65176 43.5101028,2.81904" id="Fill-33" fill="#1A1919" mask="url(#mask-8)"></path>
                    <path d="M53.521514,11.91792 C53.7010935,12.15984 53.9205794,12.37712 54.1788318,12.57424 C54.4393645,12.76912 54.7398037,12.92928 55.0847103,13.0536 C55.4296168,13.1768 55.8144299,13.2384 56.2380093,13.2384 C56.6769813,13.2384 57.071486,13.1628 57.4232336,13.01272 C57.7749813,12.86488 58.0742804,12.66104 58.3188505,12.40736 C58.5651308,12.15368 58.7532617,11.85296 58.8849533,11.508 C59.017215,11.16248 59.0856262,10.79456 59.0856262,10.40256 C59.0856262,9.80392 58.9305607,9.32848 58.6158692,8.9768 C58.3057383,8.62344 57.9175047,8.33112 57.4540187,8.09536 C56.9893925,7.86184 56.4865701,7.6468 55.9512523,7.45192 C55.4136542,7.25648 54.9108318,7.01064 54.4479159,6.71888 C53.9844299,6.42432 53.5961963,6.05024 53.283785,5.59328 C52.9719439,5.13856 52.8168785,4.52536 52.8168785,3.75704 C52.8168785,3.2088 52.9155047,2.71152 53.1144673,2.26072 C53.3151402,1.8116 53.6018972,1.42352 53.9810093,1.09704 C54.3595514,0.77168 54.8122056,0.518 55.3429626,0.33544 C55.8748598,0.15232 56.4700374,0.06104 57.1359065,0.06104 C57.7727009,0.06104 58.3228411,0.13608 58.785757,0.28616 C59.2509533,0.4368 59.6830841,0.66808 60.0804393,0.98112 C59.9601495,1.20232 59.8609533,1.43584 59.7822804,1.68392 C59.7018972,1.93144 59.6209439,2.24448 59.542271,2.62192 L59.3022617,2.62192 C59.2361308,2.4388 59.1477664,2.24224 59.036028,2.0272 C58.9220093,1.8116 58.7692243,1.6128 58.5793832,1.42968 C58.3844112,1.24712 58.157514,1.0948 57.8924206,0.97048 C57.6256168,0.84672 57.3075047,0.784 56.937514,0.784 C56.565243,0.784 56.2220467,0.8428 55.9119159,0.9604 C55.5972243,1.07856 55.327,1.24488 55.0955421,1.45992 C54.8612336,1.67328 54.6833645,1.93144 54.5573738,2.23216 C54.4319533,2.53064 54.369243,2.85768 54.369243,3.2088 C54.369243,3.82256 54.5248785,4.3036 54.8361495,4.65528 C55.1462804,5.00864 55.5356542,5.30488 56.0002804,5.54456 C56.4660467,5.78648 56.9665888,6.00152 57.5036168,6.1908 C58.041785,6.37952 58.541757,6.6108 59.0046729,6.8852 C59.4698692,7.15736 59.8569626,7.51072 60.1710841,7.93912 C60.481215,8.36976 60.6379907,8.94488 60.6379907,9.66168 C60.6379907,10.26032 60.5268224,10.8276 60.3096168,11.36128 C60.0901308,11.89552 59.7720187,12.36088 59.3541402,12.75904 C58.9345514,13.15664 58.426028,13.46352 57.8222991,13.67912 C57.2185701,13.89248 56.5321776,14 55.7625514,14 C54.9399065,14 54.2723271,13.89248 53.7615234,13.67912 C53.2507196,13.46352 52.8225794,13.21824 52.4776729,12.94552 C52.5973925,12.64536 52.6800561,12.37544 52.7273738,12.13352 C52.7729813,11.8916 52.8168785,11.58304 52.856215,11.20504 L53.0956542,11.20504 C53.2011215,11.43856 53.3436449,11.67824 53.521514,11.91792" id="Fill-34" fill="#1A1919" mask="url(#mask-8)"></path>
                </g>
            </g>
        </g>
    </g>
</svg>