<svg xmlns="http://www.w3.org/2000/svg" width="15" height="27" viewBox="0 0 15 27">
    <path fill="#ABABAB" fill-rule="evenodd" stroke="#979797" d="M1.024 13.655c-.018-.066-.02-.084-.021-.103a.469.469 0 0 1 .02-.207.455.455 0 0 1 .042-.1c.037-.065.05-.079.063-.093.007-.009 3.972-4.003 11.896-11.983a.576.576 0 0 1 .803-.011c.225.214.231.565.011.785L2.358 13.5 13.84 25.057a.548.548 0 0 1-.01.786.574.574 0 0 1-.804-.011L1.16 13.887c-.043-.053-.056-.067-.066-.082-.061-.114-.065-.132-.07-.15z"/>
</svg>
