<svg xmlns="http://www.w3.org/2000/svg" xmlns:xlink="http://www.w3.org/1999/xlink" width="36" height="32" viewBox="0 0 36 32">
    <defs>
        <path id="b" d="M77.652 3C74.536 3 72 5.46 72 8.482c0 6.225 7.259 9.297 9.728 11.294L82 20l.272-.224C84.742 17.779 92 14.707 92 8.482 92 5.46 89.464 3 86.348 3c-1.763 0-3.312.812-4.348 2.043C80.964 3.813 79.415 3 77.652 3zm0 .843c1.668 0 3.125.83 3.981 2.083l.367.527.367-.527a4.805 4.805 0 0 1 3.98-2.083c2.647 0 4.783 2.073 4.783 4.64 0 5.439-6.263 8.254-9.13 10.45-2.867-2.196-9.13-5.011-9.13-10.45 0-2.567 2.136-4.64 4.782-4.64z"/>
        <filter id="a" width="220%" height="241.2%" x="-60%" y="-70.6%" filterUnits="objectBoundingBox">
            <feOffset in="SourceAlpha" result="shadowOffsetOuter1"/>
            <feGaussianBlur in="shadowOffsetOuter1" result="shadowBlurOuter1" stdDeviation="4"/>
            <feColorMatrix in="shadowBlurOuter1" values="0 0 0 0 0 0 0 0 0 0 0 0 0 0 0 0 0 0 0.3 0"/>
        </filter>
    </defs>
    <g fill="none" fill-rule="nonzero" transform="translate(-64 5)">
        <use fill="#000" filter="url(#a)" xlink:href="#b"/>
        <use fill="#F05B72" fill-rule="evenodd" xlink:href="#b"/>
    </g>
</svg>
