<svg xmlns="http://www.w3.org/2000/svg" width="19" height="20" viewBox="0 0 19 20">
    <g fill="#ABABAB" fill-rule="nonzero">
        <path d="M16.813 6.333H2.187A2.193 2.193 0 0 0 0 8.518v9.202c0 1.201.985 2.185 2.187 2.185h14.626A2.193 2.193 0 0 0 19 17.72V8.518a2.193 2.193 0 0 0-2.187-2.185zm1.504 11.387c0 .82-.656 1.502-1.504 1.502H2.187c-.82 0-1.504-.655-1.504-1.502V8.518c0-.82.656-1.502 1.504-1.502h14.626c.82 0 1.504.655 1.504 1.502v9.202zM4.392 3.283C4.392 1.835 5.732.67 7.4.67h4.198c1.668 0 3.008 1.164 3.008 2.612v2.146h.775V3.283C15.381 1.473 13.684 0 11.6 0H7.4C5.316 0 3.62 1.473 3.62 3.283v2.146h.775l-.002-2.146z"/>
        <path d="M6.333 13.571c0 1.207-1.81 1.207-1.81 0 0-1.206 1.81-1.206 1.81 0M10.857 13.57c0 1.208-1.81 1.208-1.81 0 0-1.205 1.81-1.205 1.81 0M14.476 13.572c0 1.206-1.81 1.206-1.81 0 0-1.207 1.81-1.207 1.81 0"/>
    </g>
</svg>
