<svg xmlns="http://www.w3.org/2000/svg" width="67" height="60" viewBox="0 0 67 60">
    <path fill="#FFC361" fill-rule="nonzero" d="M33.611 0a1.32 1.32 0 0 0-1.23.805L24.24 20.842 1.852 21.933a1.313 1.313 0 0 0-1.188.866c-.17.495-.004 1.04.42 1.37l17.432 13.604-5.726 20.643a1.23 1.23 0 0 0 .5 1.343c.44.306 1.033.322 1.491.04l18.83-11.536 18.83 11.536a1.373 1.373 0 0 0 1.493-.04c.44-.307.639-.84.499-1.343l-5.726-20.643L66.14 24.168c.423-.33.59-.874.419-1.37a1.313 1.313 0 0 0-1.188-.865l-22.387-1.09L34.842.804A1.32 1.32 0 0 0 33.612 0z"/>
</svg>
