<?xml version="1.0" encoding="iso-8859-1"?>
<!-- Generator: Adobe Illustrator 22.1.0, SVG Export Plug-In . SVG Version: 6.00 Build 0)  -->
<svg version="1.1" id="Layer_1" xmlns="http://www.w3.org/2000/svg" xmlns:xlink="http://www.w3.org/1999/xlink" x="0px" y="0px"
	 viewBox="0 0 13 19" style="enable-background:new 0 0 13 19;" xml:space="preserve">
<g>
	<g>
		<path d="M12,7H1C0.7,7,0.5,6.8,0.5,6.5S0.7,6,1,6h11c0.3,0,0.5,0.2,0.5,0.5S12.3,7,12,7z"/>
	</g>
	<g>
		<path d="M12,10H1c-0.3,0-0.5-0.2-0.5-0.5S0.7,9,1,9h11c0.3,0,0.5,0.2,0.5,0.5S12.3,10,12,10z"/>
	</g>
	<g>
		<path d="M12,13H1c-0.3,0-0.5-0.2-0.5-0.5S0.7,12,1,12h11c0.3,0,0.5,0.2,0.5,0.5S12.3,13,12,13z"/>
	</g>
</g>
</svg>
