<svg id="svg" version="1.1" width="20" height="20" viewBox="0 0 400 400" xmlns="http://www.w3.org/2000/svg" xmlns:xlink="http://www.w3.org/1999/xlink" ><g id="svgg"><path id="path0" d="" stroke="none" fill="#000000" fill-rule="evenodd"></path><path id="path1" d="" stroke="none" fill="#555555" fill-rule="evenodd"></path><path id="path2" d="" stroke="none" fill="#999999" fill-rule="evenodd"></path><path id="path3" d="M190.000 29.847 C 178.444 30.868,163.202 34.528,154.800 38.298 C 130.292 49.295,113.930 63.139,101.695 83.232 C 66.482 141.057,97.135 215.995,164.400 236.528 C 255.552 264.351,339.678 181.170,305.382 97.129 C 287.626 53.617,239.376 25.481,190.000 29.847 M263.800 248.974 C 227.391 268.150,176.106 268.634,138.656 250.154 C 134.967 248.333,134.880 248.348,127.653 251.949 C 90.140 270.644,60.525 303.967,42.468 347.800 C 37.154 360.699,31.149 379.959,31.861 381.816 C 32.226 382.767,367.917 382.891,368.219 381.940 C 368.600 380.739,366.868 371.474,364.416 361.600 C 351.996 311.597,323.143 274.248,280.400 252.846 C 268.296 246.786,268.059 246.731,263.800 248.974 " stroke="none" fill="#ffffff" fill-rule="evenodd"></path><path id="path4" d="M186.000 7.627 C 178.991 8.337,178.181 8.447,177.400 8.794 C 176.960 8.989,175.206 9.266,173.503 9.408 C 171.799 9.551,170.304 9.833,170.179 10.034 C 170.055 10.235,169.344 10.400,168.600 10.400 C 167.856 10.400,167.147 10.562,167.024 10.761 C 166.902 10.959,165.721 11.247,164.400 11.400 C 163.079 11.553,161.898 11.841,161.776 12.039 C 161.653 12.238,161.023 12.400,160.376 12.400 C 159.729 12.400,159.200 12.563,159.200 12.762 C 159.200 12.962,158.300 13.249,157.200 13.400 C 156.100 13.551,155.200 13.838,155.200 14.038 C 155.200 14.237,154.761 14.400,154.224 14.400 C 153.687 14.400,153.149 14.560,153.028 14.755 C 152.907 14.950,152.155 15.232,151.355 15.382 C 150.556 15.532,149.564 15.822,149.151 16.027 C 148.738 16.232,148.042 16.580,147.605 16.800 C 147.168 17.020,146.601 17.200,146.345 17.200 C 146.089 17.200,144.962 17.634,143.840 18.165 C 142.718 18.695,140.540 19.695,139.000 20.386 C 137.460 21.076,135.750 21.908,135.200 22.233 C 134.650 22.558,133.390 23.213,132.400 23.690 C 131.410 24.166,130.510 24.659,130.400 24.786 C 130.290 24.913,129.750 25.234,129.200 25.499 C 128.650 25.765,127.480 26.439,126.600 26.997 C 125.720 27.556,124.685 28.121,124.300 28.253 C 123.915 28.385,123.600 28.633,123.600 28.803 C 123.600 28.974,123.150 29.226,122.600 29.364 C 122.050 29.502,121.600 29.792,121.600 30.008 C 121.600 30.223,121.330 30.400,121.000 30.400 C 120.670 30.400,120.400 30.539,120.400 30.709 C 120.400 30.879,119.770 31.357,119.000 31.772 C 118.230 32.187,117.600 32.678,117.600 32.863 C 117.600 33.048,117.399 33.200,117.153 33.200 C 116.747 33.200,115.173 34.385,112.973 36.347 C 112.517 36.753,111.951 37.156,111.714 37.242 C 110.046 37.852,95.475 51.865,92.394 55.822 C 89.758 59.209,88.910 60.274,88.300 60.962 C 87.915 61.396,87.600 61.884,87.600 62.047 C 87.600 62.210,87.375 62.581,87.100 62.871 C 86.048 63.983,84.400 66.365,84.400 66.773 C 84.400 67.008,84.232 67.200,84.027 67.200 C 83.822 67.200,83.528 67.605,83.373 68.100 C 83.219 68.595,82.964 69.090,82.807 69.200 C 82.305 69.551,79.200 74.668,79.200 75.143 C 79.200 75.394,79.065 75.602,78.900 75.605 C 78.735 75.607,78.243 76.372,77.806 77.305 C 77.369 78.237,76.910 79.090,76.785 79.200 C 76.428 79.515,75.200 82.273,75.200 82.760 C 75.200 83.002,75.056 83.200,74.879 83.200 C 74.702 83.200,74.221 84.145,73.809 85.300 C 73.397 86.455,72.761 87.940,72.396 88.600 C 72.031 89.260,71.601 90.328,71.440 90.973 C 71.279 91.618,70.795 92.877,70.363 93.771 C 69.931 94.664,69.470 96.071,69.338 96.898 C 69.206 97.724,68.961 98.400,68.794 98.400 C 68.627 98.400,68.393 98.895,68.274 99.500 C 67.674 102.551,67.129 104.669,66.784 105.295 C 66.573 105.677,66.400 106.496,66.400 107.115 C 66.400 107.734,66.225 108.415,66.011 108.629 C 65.797 108.843,65.501 110.324,65.353 111.921 C 65.204 113.518,64.929 114.920,64.741 115.036 C 64.554 115.152,64.400 116.101,64.400 117.144 C 64.400 118.187,64.202 119.238,63.959 119.481 C 62.795 120.645,63.116 146.792,64.383 154.000 C 64.595 155.210,64.962 157.550,65.197 159.200 C 65.433 160.850,65.800 162.513,66.013 162.895 C 66.226 163.277,66.400 164.031,66.400 164.571 C 66.400 165.111,66.559 165.651,66.753 165.771 C 66.948 165.891,67.230 166.979,67.381 168.188 C 67.532 169.398,67.823 170.491,68.028 170.617 C 68.233 170.744,68.400 171.287,68.400 171.824 C 68.400 172.361,68.557 172.800,68.749 172.800 C 68.941 172.800,69.214 173.528,69.356 174.417 C 69.499 175.307,69.771 176.342,69.961 176.717 C 70.513 177.807,71.080 179.246,71.845 181.500 C 72.237 182.655,72.702 183.600,72.879 183.600 C 73.056 183.600,73.204 183.915,73.209 184.300 C 73.214 184.685,73.750 186.080,74.400 187.400 C 75.050 188.720,75.586 190.010,75.591 190.267 C 75.596 190.523,75.735 190.793,75.900 190.867 C 76.065 190.940,76.669 191.900,77.242 193.000 C 79.697 197.709,82.239 202.004,82.806 202.400 C 82.963 202.510,83.219 203.005,83.373 203.500 C 83.528 203.995,83.822 204.400,84.027 204.400 C 84.232 204.400,84.400 204.670,84.400 205.000 C 84.400 205.330,84.551 205.600,84.736 205.600 C 84.920 205.600,85.264 206.005,85.500 206.500 C 85.937 207.417,87.086 208.932,88.700 210.720 C 89.195 211.268,89.600 211.845,89.600 212.002 C 89.600 212.160,90.230 212.956,91.000 213.773 C 91.770 214.589,92.400 215.333,92.400 215.425 C 92.400 216.118,107.863 231.600,108.555 231.600 C 108.658 231.600,109.358 232.185,110.111 232.900 C 111.481 234.203,111.662 235.200,110.528 235.200 C 109.862 235.200,107.720 236.315,106.879 237.100 C 106.584 237.375,106.086 237.600,105.771 237.600 C 105.457 237.600,105.200 237.780,105.200 238.000 C 105.200 238.220,105.019 238.400,104.797 238.400 C 104.374 238.400,94.746 244.315,94.400 244.787 C 94.290 244.937,93.615 245.401,92.900 245.816 C 92.185 246.232,91.600 246.714,91.600 246.886 C 91.600 247.059,91.399 247.200,91.153 247.200 C 90.741 247.200,89.109 248.434,86.914 250.405 C 86.427 250.842,85.887 251.203,85.714 251.206 C 85.541 251.210,84.802 251.740,84.070 252.385 C 83.339 253.030,82.204 253.972,81.549 254.479 C 74.033 260.292,61.483 272.900,54.401 281.751 C 54.070 282.165,53.216 283.155,52.502 283.951 C 51.788 284.748,51.203 285.541,51.202 285.714 C 51.201 285.887,50.842 286.427,50.405 286.914 C 48.733 288.776,47.200 290.716,47.200 290.970 C 47.200 291.116,46.750 291.720,46.200 292.313 C 45.650 292.907,45.200 293.619,45.200 293.896 C 45.200 294.173,45.048 294.400,44.863 294.400 C 44.678 294.400,44.187 295.030,43.772 295.800 C 43.357 296.570,42.879 297.200,42.709 297.200 C 42.539 297.200,42.400 297.470,42.400 297.800 C 42.400 298.130,42.223 298.400,42.008 298.400 C 41.792 298.400,41.502 298.850,41.364 299.400 C 41.226 299.950,40.981 300.400,40.820 300.400 C 40.658 300.400,40.183 301.075,39.763 301.900 C 39.343 302.725,38.895 303.490,38.766 303.600 C 38.637 303.710,37.917 304.801,37.166 306.023 C 36.415 307.246,35.570 308.596,35.288 309.023 C 35.007 309.451,34.671 310.115,34.542 310.500 C 34.412 310.885,34.148 311.200,33.953 311.200 C 33.759 311.200,33.600 311.428,33.600 311.707 C 33.600 311.986,33.159 312.863,32.621 313.656 C 32.082 314.448,31.522 315.570,31.377 316.149 C 31.232 316.727,30.953 317.200,30.757 317.200 C 30.560 317.200,30.400 317.470,30.400 317.800 C 30.400 318.130,30.228 318.400,30.018 318.400 C 29.808 318.400,29.518 319.030,29.374 319.800 C 29.229 320.570,28.951 321.200,28.755 321.200 C 28.560 321.200,28.400 321.470,28.400 321.800 C 28.400 322.130,28.220 322.400,28.000 322.400 C 27.780 322.400,27.600 322.579,27.600 322.797 C 27.600 323.459,26.232 326.400,25.924 326.400 C 25.766 326.400,25.518 327.030,25.374 327.800 C 25.229 328.570,24.995 329.200,24.853 329.200 C 24.711 329.200,24.349 329.785,24.048 330.500 C 23.747 331.215,23.253 332.323,22.950 332.961 C 22.648 333.600,22.400 334.365,22.400 334.661 C 22.400 334.958,22.228 335.200,22.018 335.200 C 21.808 335.200,21.518 335.830,21.374 336.600 C 21.229 337.370,20.951 338.000,20.755 338.000 C 20.560 338.000,20.400 338.249,20.400 338.554 C 20.400 338.859,20.131 339.624,19.802 340.254 C 19.474 340.884,19.204 341.805,19.202 342.300 C 19.201 342.795,19.064 343.200,18.898 343.200 C 18.570 343.200,17.829 344.795,17.411 346.400 C 17.141 347.432,16.933 347.971,15.841 350.460 C 15.488 351.264,15.200 352.211,15.200 352.566 C 15.200 352.921,15.020 353.568,14.800 354.005 C 14.580 354.442,14.223 355.152,14.008 355.583 C 13.792 356.013,13.498 357.097,13.355 357.991 C 13.212 358.886,12.939 359.714,12.747 359.832 C 12.556 359.951,12.400 360.476,12.400 361.000 C 12.400 361.524,12.237 362.054,12.037 362.177 C 11.838 362.300,11.551 363.300,11.400 364.400 C 11.249 365.500,10.962 366.500,10.763 366.623 C 10.563 366.746,10.400 367.377,10.400 368.024 C 10.400 368.671,10.234 369.200,10.032 369.200 C 9.829 369.200,9.538 370.370,9.385 371.800 C 9.232 373.230,8.948 374.400,8.753 374.400 C 8.559 374.400,8.400 375.019,8.400 375.776 C 8.400 376.533,8.220 377.264,8.000 377.400 C 7.780 377.536,7.600 378.242,7.600 378.969 C 7.600 380.379,8.757 380.800,12.632 380.800 C 13.359 380.800,14.064 380.980,14.200 381.200 C 14.336 381.420,15.326 381.600,16.400 381.600 C 17.474 381.600,18.453 381.763,18.576 381.961 C 18.699 382.160,20.690 382.452,23.000 382.609 C 25.310 382.767,27.200 383.054,27.200 383.248 C 27.200 383.442,28.178 383.600,29.373 383.600 C 31.521 383.600,32.540 382.797,31.836 381.657 C 31.026 380.347,37.330 360.273,42.468 347.800 C 60.525 303.967,90.140 270.644,127.653 251.949 C 134.880 248.348,134.967 248.333,138.656 250.154 C 176.095 268.629,224.228 268.308,263.133 249.325 L 267.666 247.114 271.333 248.625 C 317.783 267.776,351.162 308.288,364.417 361.600 C 366.365 369.436,368.049 377.950,368.215 380.800 C 368.285 382.010,368.355 383.135,368.371 383.300 C 368.412 383.723,371.506 383.676,371.770 383.248 C 371.890 383.055,374.061 382.767,376.595 382.609 C 379.128 382.451,381.302 382.159,381.424 381.960 C 381.547 381.762,382.706 381.600,384.000 381.600 C 385.294 381.600,386.464 381.420,386.600 381.200 C 386.736 380.980,387.812 380.800,388.991 380.800 C 391.952 380.800,392.400 380.561,392.400 378.981 C 392.400 378.247,392.247 377.553,392.060 377.437 C 391.873 377.321,391.607 375.894,391.469 374.264 C 391.331 372.635,391.035 370.817,390.809 370.225 C 390.584 369.632,390.400 368.540,390.400 367.798 C 390.400 367.055,390.220 366.336,390.000 366.200 C 389.780 366.064,389.600 365.494,389.600 364.934 C 389.600 363.846,388.519 358.732,388.007 357.400 C 387.838 356.960,387.392 355.250,387.015 353.600 C 386.639 351.950,386.182 350.240,386.000 349.800 C 385.629 348.906,384.842 345.980,384.520 344.300 C 384.404 343.695,384.170 343.200,384.000 343.200 C 383.830 343.200,383.570 342.394,383.422 341.409 C 383.275 340.424,382.984 339.514,382.777 339.386 C 382.570 339.258,382.400 338.713,382.400 338.176 C 382.400 337.639,382.220 337.200,382.000 337.200 C 381.780 337.200,381.600 336.878,381.600 336.485 C 381.600 335.679,380.274 331.741,379.865 331.332 C 379.719 331.186,379.600 330.826,379.600 330.531 C 379.600 330.237,379.150 329.063,378.600 327.923 C 378.050 326.783,377.600 325.709,377.600 325.536 C 377.600 325.209,376.585 322.917,373.950 317.293 C 373.097 315.473,372.400 313.808,372.400 313.593 C 372.400 313.377,372.260 313.200,372.088 313.200 C 371.916 313.200,371.427 312.300,371.000 311.200 C 370.573 310.100,370.129 309.198,370.012 309.196 C 369.895 309.194,369.445 308.384,369.010 307.396 C 368.576 306.408,368.081 305.600,367.910 305.600 C 367.740 305.600,367.600 305.423,367.600 305.207 C 367.600 304.991,366.880 303.638,366.000 302.200 C 365.120 300.762,364.400 299.495,364.400 299.384 C 364.400 299.173,362.357 295.947,362.004 295.600 C 361.602 295.206,360.772 293.787,360.542 293.100 C 360.412 292.715,360.176 292.400,360.016 292.400 C 359.857 292.400,359.387 291.770,358.972 291.000 C 358.557 290.230,358.079 289.600,357.909 289.600 C 357.739 289.600,357.600 289.345,357.600 289.033 C 357.600 288.722,357.450 288.407,357.267 288.333 C 357.083 288.260,355.873 286.760,354.577 285.000 C 351.998 281.497,351.304 280.606,350.400 279.636 C 350.070 279.281,349.380 278.453,348.867 277.796 C 344.763 272.535,332.549 260.258,327.591 256.410 C 326.606 255.646,325.710 254.926,325.600 254.810 C 324.984 254.162,321.218 251.200,321.010 251.200 C 320.875 251.200,320.314 250.750,319.764 250.200 C 319.214 249.650,318.568 249.200,318.329 249.200 C 318.090 249.200,317.600 248.885,317.241 248.500 C 316.882 248.115,316.301 247.620,315.950 247.400 C 315.598 247.180,313.482 245.778,311.247 244.284 C 309.012 242.791,306.872 241.450,306.492 241.305 C 306.111 241.159,305.444 240.709,305.008 240.305 C 304.572 239.900,303.807 239.466,303.308 239.341 C 302.809 239.216,302.400 238.974,302.400 238.804 C 302.400 238.634,301.365 237.981,300.100 237.352 C 298.835 236.723,297.710 236.115,297.600 236.002 C 297.490 235.889,295.998 235.094,294.285 234.236 C 290.569 232.374,290.516 232.309,291.893 231.350 C 293.422 230.286,307.600 216.091,307.600 215.625 C 307.600 215.412,308.185 214.645,308.900 213.919 C 309.615 213.194,310.380 212.312,310.600 211.959 C 310.820 211.606,312.035 209.951,313.300 208.280 C 314.565 206.610,315.600 205.068,315.600 204.855 C 315.600 204.641,315.736 204.407,315.902 204.333 C 316.507 204.066,321.534 195.828,322.513 193.500 C 322.767 192.895,323.116 192.400,323.288 192.400 C 323.459 192.400,323.600 192.040,323.600 191.600 C 323.600 191.160,323.780 190.800,324.000 190.800 C 324.220 190.800,324.400 190.633,324.400 190.429 C 324.400 190.225,325.047 188.650,325.837 186.929 C 326.627 185.208,327.543 183.170,327.870 182.400 C 328.198 181.630,328.722 180.409,329.033 179.686 C 329.345 178.964,329.600 178.019,329.600 177.586 C 329.600 177.154,329.780 176.800,330.000 176.800 C 330.220 176.800,330.400 176.509,330.400 176.154 C 330.400 175.578,331.208 172.807,332.019 170.600 C 332.898 168.207,333.600 165.346,333.600 164.154 C 333.600 163.409,333.757 162.800,333.948 162.800 C 334.139 162.800,334.404 162.035,334.535 161.100 C 334.666 160.165,334.952 158.590,335.170 157.600 C 335.387 156.610,335.573 154.945,335.583 153.900 C 335.592 152.855,335.753 152.000,335.940 152.000 C 337.233 152.000,337.299 122.574,336.013 119.400 C 335.835 118.960,335.476 116.980,335.217 115.000 C 334.409 108.837,334.326 108.400,333.958 108.400 C 333.761 108.400,333.592 107.815,333.582 107.100 C 333.573 106.385,333.305 105.080,332.988 104.200 C 332.671 103.320,332.409 102.283,332.406 101.895 C 332.403 101.507,332.242 100.877,332.050 100.495 C 331.857 100.113,331.368 98.720,330.962 97.400 C 330.556 96.080,329.995 94.550,329.714 94.000 C 329.434 93.450,329.204 92.773,329.202 92.495 C 329.201 92.217,329.041 91.677,328.847 91.295 C 328.652 90.913,328.273 90.060,328.005 89.400 C 327.736 88.740,327.293 87.660,327.020 87.000 C 326.054 84.660,320.383 73.560,319.970 73.200 C 319.843 73.090,319.393 72.370,318.970 71.600 C 318.546 70.830,318.090 70.110,317.956 70.000 C 317.822 69.890,317.412 69.215,317.046 68.500 C 316.679 67.785,316.225 67.200,316.036 67.200 C 315.848 67.200,315.588 66.885,315.458 66.500 C 315.157 65.604,314.435 64.508,313.300 63.225 C 312.805 62.666,312.400 61.996,312.400 61.737 C 312.400 61.479,312.265 61.207,312.100 61.133 C 311.841 61.018,309.530 58.295,307.601 55.833 C 305.230 52.806,292.891 40.400,292.251 40.400 C 292.150 40.400,291.295 39.680,290.351 38.800 C 289.408 37.920,288.486 37.200,288.303 37.200 C 288.121 37.200,287.573 36.834,287.086 36.386 C 284.919 34.395,283.362 33.212,282.900 33.206 C 282.625 33.203,282.400 33.048,282.400 32.863 C 282.400 32.678,281.770 32.187,281.000 31.772 C 280.230 31.357,279.600 30.879,279.600 30.709 C 279.600 30.539,279.330 30.400,279.000 30.400 C 278.670 30.400,278.400 30.223,278.400 30.008 C 278.400 29.792,277.950 29.502,277.400 29.364 C 276.850 29.226,276.400 28.978,276.400 28.813 C 276.400 28.649,275.545 28.063,274.500 27.512 C 270.548 25.429,269.796 24.992,269.667 24.700 C 269.593 24.535,269.278 24.400,268.967 24.400 C 268.655 24.400,268.400 24.240,268.400 24.043 C 268.400 23.847,267.916 23.565,267.324 23.417 C 266.733 23.268,265.777 22.811,265.200 22.400 C 264.623 21.989,263.622 21.524,262.976 21.365 C 262.329 21.207,261.710 20.960,261.600 20.818 C 261.316 20.449,258.566 19.200,258.040 19.200 C 257.798 19.200,257.600 19.020,257.600 18.800 C 257.600 18.580,257.251 18.400,256.824 18.400 C 256.397 18.400,255.945 18.234,255.819 18.031 C 255.694 17.828,255.014 17.535,254.309 17.380 C 253.603 17.225,252.660 16.913,252.213 16.687 C 250.573 15.857,250.147 15.696,248.800 15.400 C 248.044 15.234,247.105 14.941,246.713 14.749 C 246.321 14.557,245.666 14.235,245.259 14.033 C 244.851 13.832,243.681 13.541,242.659 13.388 C 241.636 13.235,240.800 12.950,240.800 12.755 C 240.800 12.560,240.271 12.400,239.624 12.400 C 238.977 12.400,238.347 12.238,238.224 12.039 C 238.102 11.841,236.921 11.553,235.600 11.400 C 234.279 11.247,233.098 10.959,232.976 10.761 C 232.853 10.562,232.169 10.400,231.456 10.400 C 230.743 10.400,229.988 10.228,229.777 10.017 C 229.567 9.807,227.905 9.511,226.085 9.359 C 224.264 9.207,222.680 8.929,222.564 8.741 C 222.448 8.554,221.409 8.400,220.256 8.400 C 219.103 8.400,217.955 8.195,217.705 7.945 C 217.137 7.377,191.045 7.115,186.000 7.627 M217.413 30.741 C 300.779 43.826,340.779 132.598,292.354 197.059 C 242.488 263.440,134.165 254.286,97.578 180.600 C 70.546 126.156,95.104 65.085,154.800 38.298 C 163.202 34.528,178.444 30.868,190.000 29.847 C 195.173 29.389,212.376 29.951,217.413 30.741 " stroke="none" fill="#d3d4d4" fill-rule="evenodd"></path></g></svg>
