<svg xmlns="http://www.w3.org/2000/svg" width="20" height="22" viewBox="0 0 20 22">
    <path fill="#1F2341" fill-rule="nonzero" stroke="#1F2341" stroke-width=".44" d="M9.77 1C7.35 1 5.384 2.981 5.384 5.419c0 2.437 1.966 4.418 4.384 4.418 2.419 0 4.385-1.981 4.385-4.418C14.154 2.98 12.188 1 9.769 1zm0 .465c2.169 0 3.922 1.767 3.922 3.954 0 2.186-1.753 3.953-3.923 3.953S5.846 7.605 5.846 5.42c0-2.187 1.753-3.954 3.923-3.954zM10 11c-4.982 0-9 4.049-9 9.07V21h.462v-.93c0-4.771 3.804-8.605 8.538-8.605s8.538 3.834 8.538 8.605V21H19v-.93c0-5.021-4.018-9.07-9-9.07z"/>
</svg>
