<svg xmlns="http://www.w3.org/2000/svg" width="45" height="47" viewBox="0 0 45 47">
    <path fill="#1F2341" fill-rule="nonzero" d="M.795 0C.329.092-.008.523 0 1.022v4.087C0 5.67.44 6.13.978 6.13h.979v31.674c0 .563.44 1.022.978 1.022h18.587v2.235c-1.131.427-1.957 1.553-1.957 2.874 0 1.68 1.326 3.065 2.935 3.065s2.935-1.385 2.935-3.065c0-1.321-.826-2.447-1.957-2.874v-2.235h18.587c.539 0 .978-.459.978-1.022V6.13h.979c.539 0 .978-.459.978-1.021V1.022C45 .459 44.56 0 44.022 0H.795zm1.162 2.043h41.086v2.044H1.957V2.043zM3.913 6.13h37.174v30.653H22.683a.953.953 0 0 0-.397 0H3.913V6.13zm12.534 6.13c-.466.093-.802.524-.795 1.023v5.108c0 .563.44 1.022.979 1.022h4.89c.54 0 .98-.459.98-1.022 0-3.372-2.641-6.13-5.87-6.13h-.184zm1.162 2.236c1.36.371 2.396 1.453 2.751 2.874H17.61v-2.874zm-3.913.83c-3.23 0-5.87 2.758-5.87 6.13 0 3.373 2.64 6.131 5.87 6.131 3.229 0 5.87-2.758 5.87-6.13 0-.563-.44-1.022-.979-1.022h-3.913v-4.087c0-.563-.44-1.022-.978-1.022zm11.464 0c-.54.08-.917.603-.841 1.166.076.562.577.957 1.116.878h10.76a.976.976 0 0 0 .86-.507c.176-.32.176-.71 0-1.03a.976.976 0 0 0-.86-.507H25.16zm-12.443 2.235v3.896c0 .562.44 1.021.979 1.021h3.73c-.44 1.756-1.904 3.065-3.73 3.065-2.17 0-3.913-1.82-3.913-4.086 0-1.908 1.253-3.437 2.934-3.896zm12.443 2.874c-.54.08-.917.602-.841 1.165.076.563.577.958 1.116.878h10.76a.976.976 0 0 0 .86-.507c.176-.319.176-.71 0-1.03a.976.976 0 0 0-.86-.506H25.16zm0 5.108c-.54.08-.917.603-.841 1.166.076.563.577.958 1.116.878h10.76a.976.976 0 0 0 .86-.507c.176-.32.176-.71 0-1.03a.976.976 0 0 0-.86-.507H25.16zm-2.752 17.37h.092c.55 0 .978.447.978 1.022s-.428 1.022-.978 1.022-.978-.447-.978-1.022c0-.543.378-.974.886-1.022z"/>
</svg>
